<svg version="1.1" xmlns="http://www.w3.org/2000/svg" viewBox="0 0 3031.3897705078134 1673.7777862548826" width="3031.3897705078134" height="1673.7777862548826" filter="invert(93%) hue-rotate(180deg)">
  <!-- svg-source:excalidraw -->
  
  <defs>
    <style>
      @font-face {
        font-family: "Virgil";
        src: url("https://excalidraw.com/Virgil.woff2");
      }
      @font-face {
        font-family: "Cascadia";
        src: url("https://excalidraw.com/Cascadia.woff2");
      }
    </style>
  </defs>
  <rect x="0" y="0" width="3031.3897705078134" height="1673.7777862548826" fill="#ffffff"></rect><g transform="translate(1110.8688492575395 53.9505495617766) rotate(0 136.07639203477936 39.82723669310616)"><text x="0" y="63.65447338621232" font-family="Cascadia, Segoe UI Emoji" font-size="66.14628813855731px" fill="#000000" text-anchor="start" style="white-space: pre;" direction="ltr">EMPEROR</text></g><g stroke-linecap="round" transform="translate(792.3340284559476 308.6666819254557) rotate(0 137.5 137.33341979980474)"><path d="M275 137.33 C275 141.11, 274.84 144.91, 274.53 148.67 C274.22 152.44, 273.75 156.21, 273.12 159.94 C272.5 163.67, 271.72 167.38, 270.79 171.05 C269.86 174.71, 268.78 178.35, 267.55 181.93 C266.32 185.5, 264.94 189.04, 263.42 192.5 C261.9 195.96, 260.23 199.37, 258.43 202.7 C256.63 206.02, 254.68 209.28, 252.61 212.45 C250.54 215.61, 248.33 218.7, 246.01 221.69 C243.68 224.67, 241.23 227.57, 238.66 230.35 C236.1 233.13, 233.41 235.81, 230.63 238.37 C227.84 240.93, 224.94 243.39, 221.95 245.71 C218.97 248.03, 215.87 250.24, 212.71 252.3 C209.54 254.37, 206.27 256.32, 202.94 258.11 C199.61 259.91, 196.2 261.58, 192.73 263.1 C189.27 264.62, 185.73 266, 182.15 267.23 C178.57 268.45, 174.92 269.54, 171.25 270.46 C167.59 271.39, 163.87 272.17, 160.13 272.79 C156.4 273.42, 152.63 273.89, 148.85 274.2 C145.08 274.51, 141.28 274.67, 137.5 274.67 C133.72 274.67, 129.92 274.51, 126.15 274.2 C122.37 273.89, 118.6 273.42, 114.87 272.79 C111.13 272.17, 107.41 271.39, 103.75 270.46 C100.08 269.54, 96.43 268.45, 92.85 267.23 C89.27 266, 85.73 264.62, 82.27 263.1 C78.8 261.58, 75.39 259.91, 72.06 258.11 C68.73 256.32, 65.46 254.37, 62.29 252.3 C59.13 250.24, 56.03 248.03, 53.05 245.71 C50.06 243.39, 47.16 240.93, 44.37 238.37 C41.59 235.81, 38.9 233.13, 36.34 230.35 C33.77 227.57, 31.32 224.67, 28.99 221.69 C26.67 218.7, 24.46 215.61, 22.39 212.45 C20.32 209.28, 18.37 206.02, 16.57 202.7 C14.77 199.37, 13.1 195.96, 11.58 192.5 C10.06 189.04, 8.68 185.5, 7.45 181.93 C6.22 178.35, 5.14 174.71, 4.21 171.05 C3.28 167.38, 2.5 163.67, 1.88 159.94 C1.25 156.21, 0.78 152.44, 0.47 148.67 C0.16 144.91, 0 141.11, 0 137.33 C0 133.55, 0.16 129.76, 0.47 125.99 C0.78 122.23, 1.25 118.46, 1.88 114.73 C2.5 111, 3.28 107.28, 4.21 103.62 C5.14 99.96, 6.22 96.32, 7.45 92.74 C8.68 89.17, 10.06 85.63, 11.58 82.17 C13.1 78.71, 14.77 75.29, 16.57 71.97 C18.37 68.65, 20.32 65.38, 22.39 62.22 C24.46 59.05, 26.67 55.96, 28.99 52.98 C31.32 50, 33.77 47.1, 36.34 44.32 C38.9 41.54, 41.59 38.85, 44.37 36.29 C47.16 33.73, 50.06 31.28, 53.05 28.96 C56.03 26.64, 59.13 24.43, 62.29 22.36 C65.46 20.29, 68.73 18.35, 72.06 16.55 C75.39 14.75, 78.8 13.09, 82.27 11.57 C85.73 10.05, 89.27 8.67, 92.85 7.44 C96.43 6.21, 100.08 5.13, 103.75 4.2 C107.41 3.27, 111.13 2.5, 114.87 1.87 C118.6 1.25, 122.37 0.78, 126.15 0.47 C129.92 0.16, 133.72 0, 137.5 0 C141.28 0, 145.08 0.16, 148.85 0.47 C152.63 0.78, 156.4 1.25, 160.13 1.87 C163.87 2.5, 167.59 3.27, 171.25 4.2 C174.92 5.13, 178.57 6.21, 182.15 7.44 C185.73 8.67, 189.27 10.05, 192.73 11.57 C196.2 13.09, 199.61 14.75, 202.94 16.55 C206.27 18.35, 209.54 20.29, 212.71 22.36 C215.87 24.43, 218.97 26.64, 221.95 28.96 C224.94 31.28, 227.84 33.73, 230.63 36.29 C233.41 38.85, 236.1 41.54, 238.66 44.32 C241.23 47.1, 243.68 50, 246.01 52.98 C248.33 55.96, 250.54 59.05, 252.61 62.22 C254.68 65.38, 256.63 68.65, 258.43 71.97 C260.23 75.29, 261.9 78.71, 263.42 82.17 C264.94 85.63, 266.32 89.17, 267.55 92.74 C268.78 96.32, 269.86 99.96, 270.79 103.62 C271.72 107.28, 272.5 111, 273.12 114.73 C273.75 118.46, 274.22 122.23, 274.53 125.99 C274.84 129.76, 275 133.55, 275 137.33" stroke="#000000" stroke-width="4" fill="none"></path></g><g transform="translate(797.3340284559476 424.50010172526044) rotate(0 132.5 21.5)"><text x="132.5" y="35" font-family="Helvetica, Segoe UI Emoji" font-size="36px" fill="#000000" text-anchor="middle" style="white-space: pre;" direction="ltr">HTML</text></g><g stroke-linecap="round" transform="translate(1109.4451395670585 308.6666819254557) rotate(0 137.5 137.33341979980474)"><path d="M275 137.33 C275 141.11, 274.84 144.91, 274.53 148.67 C274.22 152.44, 273.75 156.21, 273.12 159.94 C272.5 163.67, 271.72 167.38, 270.79 171.05 C269.86 174.71, 268.78 178.35, 267.55 181.93 C266.32 185.5, 264.94 189.04, 263.42 192.5 C261.9 195.96, 260.23 199.37, 258.43 202.7 C256.63 206.02, 254.68 209.28, 252.61 212.45 C250.54 215.61, 248.33 218.7, 246.01 221.69 C243.68 224.67, 241.23 227.57, 238.66 230.35 C236.1 233.13, 233.41 235.81, 230.63 238.37 C227.84 240.93, 224.94 243.39, 221.95 245.71 C218.97 248.03, 215.87 250.24, 212.71 252.3 C209.54 254.37, 206.27 256.32, 202.94 258.11 C199.61 259.91, 196.2 261.58, 192.73 263.1 C189.27 264.62, 185.73 266, 182.15 267.23 C178.57 268.45, 174.92 269.54, 171.25 270.46 C167.59 271.39, 163.87 272.17, 160.13 272.79 C156.4 273.42, 152.63 273.89, 148.85 274.2 C145.08 274.51, 141.28 274.67, 137.5 274.67 C133.72 274.67, 129.92 274.51, 126.15 274.2 C122.37 273.89, 118.6 273.42, 114.87 272.79 C111.13 272.17, 107.41 271.39, 103.75 270.46 C100.08 269.54, 96.43 268.45, 92.85 267.23 C89.27 266, 85.73 264.62, 82.27 263.1 C78.8 261.58, 75.39 259.91, 72.06 258.11 C68.73 256.32, 65.46 254.37, 62.29 252.3 C59.13 250.24, 56.03 248.03, 53.05 245.71 C50.06 243.39, 47.16 240.93, 44.37 238.37 C41.59 235.81, 38.9 233.13, 36.34 230.35 C33.77 227.57, 31.32 224.67, 28.99 221.69 C26.67 218.7, 24.46 215.61, 22.39 212.45 C20.32 209.28, 18.37 206.02, 16.57 202.7 C14.77 199.37, 13.1 195.96, 11.58 192.5 C10.06 189.04, 8.68 185.5, 7.45 181.93 C6.22 178.35, 5.14 174.71, 4.21 171.05 C3.28 167.38, 2.5 163.67, 1.88 159.94 C1.25 156.21, 0.78 152.44, 0.47 148.67 C0.16 144.91, 0 141.11, 0 137.33 C0 133.55, 0.16 129.76, 0.47 125.99 C0.78 122.23, 1.25 118.46, 1.88 114.73 C2.5 111, 3.28 107.28, 4.21 103.62 C5.14 99.96, 6.22 96.32, 7.45 92.74 C8.68 89.17, 10.06 85.63, 11.58 82.17 C13.1 78.71, 14.77 75.29, 16.57 71.97 C18.37 68.65, 20.32 65.38, 22.39 62.22 C24.46 59.05, 26.67 55.96, 28.99 52.98 C31.32 50, 33.77 47.1, 36.34 44.32 C38.9 41.54, 41.59 38.85, 44.37 36.29 C47.16 33.73, 50.06 31.28, 53.05 28.96 C56.03 26.64, 59.13 24.43, 62.29 22.36 C65.46 20.29, 68.73 18.35, 72.06 16.55 C75.39 14.75, 78.8 13.09, 82.27 11.57 C85.73 10.05, 89.27 8.67, 92.85 7.44 C96.43 6.21, 100.08 5.13, 103.75 4.2 C107.41 3.27, 111.13 2.5, 114.87 1.87 C118.6 1.25, 122.37 0.78, 126.15 0.47 C129.92 0.16, 133.72 0, 137.5 0 C141.28 0, 145.08 0.16, 148.85 0.47 C152.63 0.78, 156.4 1.25, 160.13 1.87 C163.87 2.5, 167.59 3.27, 171.25 4.2 C174.92 5.13, 178.57 6.21, 182.15 7.44 C185.73 8.67, 189.27 10.05, 192.73 11.57 C196.2 13.09, 199.61 14.75, 202.94 16.55 C206.27 18.35, 209.54 20.29, 212.71 22.36 C215.87 24.43, 218.97 26.64, 221.95 28.96 C224.94 31.28, 227.84 33.73, 230.63 36.29 C233.41 38.85, 236.1 41.54, 238.66 44.32 C241.23 47.1, 243.68 50, 246.01 52.98 C248.33 55.96, 250.54 59.05, 252.61 62.22 C254.68 65.38, 256.63 68.65, 258.43 71.97 C260.23 75.29, 261.9 78.71, 263.42 82.17 C264.94 85.63, 266.32 89.17, 267.55 92.74 C268.78 96.32, 269.86 99.96, 270.79 103.62 C271.72 107.28, 272.5 111, 273.12 114.73 C273.75 118.46, 274.22 122.23, 274.53 125.99 C274.84 129.76, 275 133.55, 275 137.33" stroke="#000000" stroke-width="4" fill="none"></path></g><g transform="translate(1114.4451395670585 424.5001017252603) rotate(0 132.5 21.5)"><text x="132.5" y="35" font-family="Helvetica, Segoe UI Emoji" font-size="36px" fill="#000000" text-anchor="middle" style="white-space: pre;" direction="ltr">CSS</text></g><g stroke-linecap="round" transform="translate(475.22291734483656 308.6666819254557) rotate(0 137.5 137.33341979980474)"><path d="M275 137.33 C275 141.11, 274.84 144.91, 274.53 148.67 C274.22 152.44, 273.75 156.21, 273.12 159.94 C272.5 163.67, 271.72 167.38, 270.79 171.05 C269.86 174.71, 268.78 178.35, 267.55 181.93 C266.32 185.5, 264.94 189.04, 263.42 192.5 C261.9 195.96, 260.23 199.37, 258.43 202.7 C256.63 206.02, 254.68 209.28, 252.61 212.45 C250.54 215.61, 248.33 218.7, 246.01 221.69 C243.68 224.67, 241.23 227.57, 238.66 230.35 C236.1 233.13, 233.41 235.81, 230.63 238.37 C227.84 240.93, 224.94 243.39, 221.95 245.71 C218.97 248.03, 215.87 250.24, 212.71 252.3 C209.54 254.37, 206.27 256.32, 202.94 258.11 C199.61 259.91, 196.2 261.58, 192.73 263.1 C189.27 264.62, 185.73 266, 182.15 267.23 C178.57 268.45, 174.92 269.54, 171.25 270.46 C167.59 271.39, 163.87 272.17, 160.13 272.79 C156.4 273.42, 152.63 273.89, 148.85 274.2 C145.08 274.51, 141.28 274.67, 137.5 274.67 C133.72 274.67, 129.92 274.51, 126.15 274.2 C122.37 273.89, 118.6 273.42, 114.87 272.79 C111.13 272.17, 107.41 271.39, 103.75 270.46 C100.08 269.54, 96.43 268.45, 92.85 267.23 C89.27 266, 85.73 264.62, 82.27 263.1 C78.8 261.58, 75.39 259.91, 72.06 258.11 C68.73 256.32, 65.46 254.37, 62.29 252.3 C59.13 250.24, 56.03 248.03, 53.05 245.71 C50.06 243.39, 47.16 240.93, 44.37 238.37 C41.59 235.81, 38.9 233.13, 36.34 230.35 C33.77 227.57, 31.32 224.67, 28.99 221.69 C26.67 218.7, 24.46 215.61, 22.39 212.45 C20.32 209.28, 18.37 206.02, 16.57 202.7 C14.77 199.37, 13.1 195.96, 11.58 192.5 C10.06 189.04, 8.68 185.5, 7.45 181.93 C6.22 178.35, 5.14 174.71, 4.21 171.05 C3.28 167.38, 2.5 163.67, 1.88 159.94 C1.25 156.21, 0.78 152.44, 0.47 148.67 C0.16 144.91, 0 141.11, 0 137.33 C0 133.55, 0.16 129.76, 0.47 125.99 C0.78 122.23, 1.25 118.46, 1.88 114.73 C2.5 111, 3.28 107.28, 4.21 103.62 C5.14 99.96, 6.22 96.32, 7.45 92.74 C8.68 89.17, 10.06 85.63, 11.58 82.17 C13.1 78.71, 14.77 75.29, 16.57 71.97 C18.37 68.65, 20.32 65.38, 22.39 62.22 C24.46 59.05, 26.67 55.96, 28.99 52.98 C31.32 50, 33.77 47.1, 36.34 44.32 C38.9 41.54, 41.59 38.85, 44.37 36.29 C47.16 33.73, 50.06 31.28, 53.05 28.96 C56.03 26.64, 59.13 24.43, 62.29 22.36 C65.46 20.29, 68.73 18.35, 72.06 16.55 C75.39 14.75, 78.8 13.09, 82.27 11.57 C85.73 10.05, 89.27 8.67, 92.85 7.44 C96.43 6.21, 100.08 5.13, 103.75 4.2 C107.41 3.27, 111.13 2.5, 114.87 1.87 C118.6 1.25, 122.37 0.78, 126.15 0.47 C129.92 0.16, 133.72 0, 137.5 0 C141.28 0, 145.08 0.16, 148.85 0.47 C152.63 0.78, 156.4 1.25, 160.13 1.87 C163.87 2.5, 167.59 3.27, 171.25 4.2 C174.92 5.13, 178.57 6.21, 182.15 7.44 C185.73 8.67, 189.27 10.05, 192.73 11.57 C196.2 13.09, 199.61 14.75, 202.94 16.55 C206.27 18.35, 209.54 20.29, 212.71 22.36 C215.87 24.43, 218.97 26.64, 221.95 28.96 C224.94 31.28, 227.84 33.73, 230.63 36.29 C233.41 38.85, 236.1 41.54, 238.66 44.32 C241.23 47.1, 243.68 50, 246.01 52.98 C248.33 55.96, 250.54 59.05, 252.61 62.22 C254.68 65.38, 256.63 68.65, 258.43 71.97 C260.23 75.29, 261.9 78.71, 263.42 82.17 C264.94 85.63, 266.32 89.17, 267.55 92.74 C268.78 96.32, 269.86 99.96, 270.79 103.62 C271.72 107.28, 272.5 111, 273.12 114.73 C273.75 118.46, 274.22 122.23, 274.53 125.99 C274.84 129.76, 275 133.55, 275 137.33" stroke="#000000" stroke-width="4" fill="none"></path></g><g transform="translate(480.22291734483656 424.50010172526044) rotate(0 132.5 21.5)"><text x="132.5" y="35" font-family="Helvetica, Segoe UI Emoji" font-size="36px" fill="#000000" text-anchor="middle" style="white-space: pre;" direction="ltr">SIMULATION</text></g><g stroke-linecap="round" transform="translate(158.1118062337256 308.6666819254557) rotate(0 137.5 137.33341979980474)"><path d="M275 137.33 C275 141.11, 274.84 144.91, 274.53 148.67 C274.22 152.44, 273.75 156.21, 273.12 159.94 C272.5 163.67, 271.72 167.38, 270.79 171.05 C269.86 174.71, 268.78 178.35, 267.55 181.93 C266.32 185.5, 264.94 189.04, 263.42 192.5 C261.9 195.96, 260.23 199.37, 258.43 202.7 C256.63 206.02, 254.68 209.28, 252.61 212.45 C250.54 215.61, 248.33 218.7, 246.01 221.69 C243.68 224.67, 241.23 227.57, 238.66 230.35 C236.1 233.13, 233.41 235.81, 230.63 238.37 C227.84 240.93, 224.94 243.39, 221.95 245.71 C218.97 248.03, 215.87 250.24, 212.71 252.3 C209.54 254.37, 206.27 256.32, 202.94 258.11 C199.61 259.91, 196.2 261.58, 192.73 263.1 C189.27 264.62, 185.73 266, 182.15 267.23 C178.57 268.45, 174.92 269.54, 171.25 270.46 C167.59 271.39, 163.87 272.17, 160.13 272.79 C156.4 273.42, 152.63 273.89, 148.85 274.2 C145.08 274.51, 141.28 274.67, 137.5 274.67 C133.72 274.67, 129.92 274.51, 126.15 274.2 C122.37 273.89, 118.6 273.42, 114.87 272.79 C111.13 272.17, 107.41 271.39, 103.75 270.46 C100.08 269.54, 96.43 268.45, 92.85 267.23 C89.27 266, 85.73 264.62, 82.27 263.1 C78.8 261.58, 75.39 259.91, 72.06 258.11 C68.73 256.32, 65.46 254.37, 62.29 252.3 C59.13 250.24, 56.03 248.03, 53.05 245.71 C50.06 243.39, 47.16 240.93, 44.37 238.37 C41.59 235.81, 38.9 233.13, 36.34 230.35 C33.77 227.57, 31.32 224.67, 28.99 221.69 C26.67 218.7, 24.46 215.61, 22.39 212.45 C20.32 209.28, 18.37 206.02, 16.57 202.7 C14.77 199.37, 13.1 195.96, 11.58 192.5 C10.06 189.04, 8.68 185.5, 7.45 181.93 C6.22 178.35, 5.14 174.71, 4.21 171.05 C3.28 167.38, 2.5 163.67, 1.88 159.94 C1.25 156.21, 0.78 152.44, 0.47 148.67 C0.16 144.91, 0 141.11, 0 137.33 C0 133.55, 0.16 129.76, 0.47 125.99 C0.78 122.23, 1.25 118.46, 1.88 114.73 C2.5 111, 3.28 107.28, 4.21 103.62 C5.14 99.96, 6.22 96.32, 7.45 92.74 C8.68 89.17, 10.06 85.63, 11.58 82.17 C13.1 78.71, 14.77 75.29, 16.57 71.97 C18.37 68.65, 20.32 65.38, 22.39 62.22 C24.46 59.05, 26.67 55.96, 28.99 52.98 C31.32 50, 33.77 47.1, 36.34 44.32 C38.9 41.54, 41.59 38.85, 44.37 36.29 C47.16 33.73, 50.06 31.28, 53.05 28.96 C56.03 26.64, 59.13 24.43, 62.29 22.36 C65.46 20.29, 68.73 18.35, 72.06 16.55 C75.39 14.75, 78.8 13.09, 82.27 11.57 C85.73 10.05, 89.27 8.67, 92.85 7.44 C96.43 6.21, 100.08 5.13, 103.75 4.2 C107.41 3.27, 111.13 2.5, 114.87 1.87 C118.6 1.25, 122.37 0.78, 126.15 0.47 C129.92 0.16, 133.72 0, 137.5 0 C141.28 0, 145.08 0.16, 148.85 0.47 C152.63 0.78, 156.4 1.25, 160.13 1.87 C163.87 2.5, 167.59 3.27, 171.25 4.2 C174.92 5.13, 178.57 6.21, 182.15 7.44 C185.73 8.67, 189.27 10.05, 192.73 11.57 C196.2 13.09, 199.61 14.75, 202.94 16.55 C206.27 18.35, 209.54 20.29, 212.71 22.36 C215.87 24.43, 218.97 26.64, 221.95 28.96 C224.94 31.28, 227.84 33.73, 230.63 36.29 C233.41 38.85, 236.1 41.54, 238.66 44.32 C241.23 47.1, 243.68 50, 246.01 52.98 C248.33 55.96, 250.54 59.05, 252.61 62.22 C254.68 65.38, 256.63 68.65, 258.43 71.97 C260.23 75.29, 261.9 78.71, 263.42 82.17 C264.94 85.63, 266.32 89.17, 267.55 92.74 C268.78 96.32, 269.86 99.96, 270.79 103.62 C271.72 107.28, 272.5 111, 273.12 114.73 C273.75 118.46, 274.22 122.23, 274.53 125.99 C274.84 129.76, 275 133.55, 275 137.33" stroke="#000000" stroke-width="4" fill="none"></path></g><g transform="translate(163.1118062337256 424.50010172526044) rotate(0 132.5 21.5)"><text x="132.5" y="35" font-family="Helvetica, Segoe UI Emoji" font-size="36px" fill="#000000" text-anchor="middle" style="white-space: pre;" direction="ltr">SLEEP</text></g><g stroke-linecap="round" transform="translate(1426.5562506781694 308.6666819254557) rotate(0 137.5 137.33341979980474)"><path d="M275 137.33 C275 141.11, 274.84 144.91, 274.53 148.67 C274.22 152.44, 273.75 156.21, 273.12 159.94 C272.5 163.67, 271.72 167.38, 270.79 171.05 C269.86 174.71, 268.78 178.35, 267.55 181.93 C266.32 185.5, 264.94 189.04, 263.42 192.5 C261.9 195.96, 260.23 199.37, 258.43 202.7 C256.63 206.02, 254.68 209.28, 252.61 212.45 C250.54 215.61, 248.33 218.7, 246.01 221.69 C243.68 224.67, 241.23 227.57, 238.66 230.35 C236.1 233.13, 233.41 235.81, 230.63 238.37 C227.84 240.93, 224.94 243.39, 221.95 245.71 C218.97 248.03, 215.87 250.24, 212.71 252.3 C209.54 254.37, 206.27 256.32, 202.94 258.11 C199.61 259.91, 196.2 261.58, 192.73 263.1 C189.27 264.62, 185.73 266, 182.15 267.23 C178.57 268.45, 174.92 269.54, 171.25 270.46 C167.59 271.39, 163.87 272.17, 160.13 272.79 C156.4 273.42, 152.63 273.89, 148.85 274.2 C145.08 274.51, 141.28 274.67, 137.5 274.67 C133.72 274.67, 129.92 274.51, 126.15 274.2 C122.37 273.89, 118.6 273.42, 114.87 272.79 C111.13 272.17, 107.41 271.39, 103.75 270.46 C100.08 269.54, 96.43 268.45, 92.85 267.23 C89.27 266, 85.73 264.62, 82.27 263.1 C78.8 261.58, 75.39 259.91, 72.06 258.11 C68.73 256.32, 65.46 254.37, 62.29 252.3 C59.13 250.24, 56.03 248.03, 53.05 245.71 C50.06 243.39, 47.16 240.93, 44.37 238.37 C41.59 235.81, 38.9 233.13, 36.34 230.35 C33.77 227.57, 31.32 224.67, 28.99 221.69 C26.67 218.7, 24.46 215.61, 22.39 212.45 C20.32 209.28, 18.37 206.02, 16.57 202.7 C14.77 199.37, 13.1 195.96, 11.58 192.5 C10.06 189.04, 8.68 185.5, 7.45 181.93 C6.22 178.35, 5.14 174.71, 4.21 171.05 C3.28 167.38, 2.5 163.67, 1.88 159.94 C1.25 156.21, 0.78 152.44, 0.47 148.67 C0.16 144.91, 0 141.11, 0 137.33 C0 133.55, 0.16 129.76, 0.47 125.99 C0.78 122.23, 1.25 118.46, 1.88 114.73 C2.5 111, 3.28 107.28, 4.21 103.62 C5.14 99.96, 6.22 96.32, 7.45 92.74 C8.68 89.17, 10.06 85.63, 11.58 82.17 C13.1 78.71, 14.77 75.29, 16.57 71.97 C18.37 68.65, 20.32 65.38, 22.39 62.22 C24.46 59.05, 26.67 55.96, 28.99 52.98 C31.32 50, 33.77 47.1, 36.34 44.32 C38.9 41.54, 41.59 38.85, 44.37 36.29 C47.16 33.73, 50.06 31.28, 53.05 28.96 C56.03 26.64, 59.13 24.43, 62.29 22.36 C65.46 20.29, 68.73 18.35, 72.06 16.55 C75.39 14.75, 78.8 13.09, 82.27 11.57 C85.73 10.05, 89.27 8.67, 92.85 7.44 C96.43 6.21, 100.08 5.13, 103.75 4.2 C107.41 3.27, 111.13 2.5, 114.87 1.87 C118.6 1.25, 122.37 0.78, 126.15 0.47 C129.92 0.16, 133.72 0, 137.5 0 C141.28 0, 145.08 0.16, 148.85 0.47 C152.63 0.78, 156.4 1.25, 160.13 1.87 C163.87 2.5, 167.59 3.27, 171.25 4.2 C174.92 5.13, 178.57 6.21, 182.15 7.44 C185.73 8.67, 189.27 10.05, 192.73 11.57 C196.2 13.09, 199.61 14.75, 202.94 16.55 C206.27 18.35, 209.54 20.29, 212.71 22.36 C215.87 24.43, 218.97 26.64, 221.95 28.96 C224.94 31.28, 227.84 33.73, 230.63 36.29 C233.41 38.85, 236.1 41.54, 238.66 44.32 C241.23 47.1, 243.68 50, 246.01 52.98 C248.33 55.96, 250.54 59.05, 252.61 62.22 C254.68 65.38, 256.63 68.65, 258.43 71.97 C260.23 75.29, 261.9 78.71, 263.42 82.17 C264.94 85.63, 266.32 89.17, 267.55 92.74 C268.78 96.32, 269.86 99.96, 270.79 103.62 C271.72 107.28, 272.5 111, 273.12 114.73 C273.75 118.46, 274.22 122.23, 274.53 125.99 C274.84 129.76, 275 133.55, 275 137.33" stroke="#000000" stroke-width="4" fill="none"></path></g><g transform="translate(1431.5562506781694 424.50010172526044) rotate(0 132.5 21.5)"><text x="132.5" y="35" font-family="Helvetica, Segoe UI Emoji" font-size="36px" fill="#000000" text-anchor="middle" style="white-space: pre;" direction="ltr">LOVE</text></g><g stroke-linecap="round" transform="translate(1743.6673617892802 308.6666819254557) rotate(0 137.5000000000001 137.33341979980474)"><path d="M275 137.33 C275 141.11, 274.84 144.91, 274.53 148.67 C274.22 152.44, 273.75 156.21, 273.12 159.94 C272.5 163.67, 271.72 167.38, 270.79 171.05 C269.86 174.71, 268.78 178.35, 267.55 181.93 C266.32 185.5, 264.94 189.04, 263.42 192.5 C261.9 195.96, 260.23 199.37, 258.43 202.7 C256.63 206.02, 254.68 209.28, 252.61 212.45 C250.54 215.61, 248.33 218.7, 246.01 221.69 C243.68 224.67, 241.23 227.57, 238.66 230.35 C236.1 233.13, 233.41 235.81, 230.63 238.37 C227.84 240.93, 224.94 243.39, 221.95 245.71 C218.97 248.03, 215.87 250.24, 212.71 252.3 C209.54 254.37, 206.27 256.32, 202.94 258.11 C199.61 259.91, 196.2 261.58, 192.73 263.1 C189.27 264.62, 185.73 266, 182.15 267.23 C178.57 268.45, 174.92 269.54, 171.25 270.46 C167.59 271.39, 163.87 272.17, 160.13 272.79 C156.4 273.42, 152.63 273.89, 148.85 274.2 C145.08 274.51, 141.28 274.67, 137.5 274.67 C133.72 274.67, 129.92 274.51, 126.15 274.2 C122.37 273.89, 118.6 273.42, 114.87 272.79 C111.13 272.17, 107.41 271.39, 103.75 270.46 C100.08 269.54, 96.43 268.45, 92.85 267.23 C89.27 266, 85.73 264.62, 82.27 263.1 C78.8 261.58, 75.39 259.91, 72.06 258.11 C68.73 256.32, 65.46 254.37, 62.29 252.3 C59.13 250.24, 56.03 248.03, 53.05 245.71 C50.06 243.39, 47.16 240.93, 44.37 238.37 C41.59 235.81, 38.9 233.13, 36.34 230.35 C33.77 227.57, 31.32 224.67, 28.99 221.69 C26.67 218.7, 24.46 215.61, 22.39 212.45 C20.32 209.28, 18.37 206.02, 16.57 202.7 C14.77 199.37, 13.1 195.96, 11.58 192.5 C10.06 189.04, 8.68 185.5, 7.45 181.93 C6.22 178.35, 5.14 174.71, 4.21 171.05 C3.28 167.38, 2.5 163.67, 1.88 159.94 C1.25 156.21, 0.78 152.44, 0.47 148.67 C0.16 144.91, 0 141.11, 0 137.33 C0 133.55, 0.16 129.76, 0.47 125.99 C0.78 122.23, 1.25 118.46, 1.88 114.73 C2.5 111, 3.28 107.28, 4.21 103.62 C5.14 99.96, 6.22 96.32, 7.45 92.74 C8.68 89.17, 10.06 85.63, 11.58 82.17 C13.1 78.71, 14.77 75.29, 16.57 71.97 C18.37 68.65, 20.32 65.38, 22.39 62.22 C24.46 59.05, 26.67 55.96, 28.99 52.98 C31.32 50, 33.77 47.1, 36.34 44.32 C38.9 41.54, 41.59 38.85, 44.37 36.29 C47.16 33.73, 50.06 31.28, 53.05 28.96 C56.03 26.64, 59.13 24.43, 62.29 22.36 C65.46 20.29, 68.73 18.35, 72.06 16.55 C75.39 14.75, 78.8 13.09, 82.27 11.57 C85.73 10.05, 89.27 8.67, 92.85 7.44 C96.43 6.21, 100.08 5.13, 103.75 4.2 C107.41 3.27, 111.13 2.5, 114.87 1.87 C118.6 1.25, 122.37 0.78, 126.15 0.47 C129.92 0.16, 133.72 0, 137.5 0 C141.28 0, 145.08 0.16, 148.85 0.47 C152.63 0.78, 156.4 1.25, 160.13 1.87 C163.87 2.5, 167.59 3.27, 171.25 4.2 C174.92 5.13, 178.57 6.21, 182.15 7.44 C185.73 8.67, 189.27 10.05, 192.73 11.57 C196.2 13.09, 199.61 14.75, 202.94 16.55 C206.27 18.35, 209.54 20.29, 212.71 22.36 C215.87 24.43, 218.97 26.64, 221.95 28.96 C224.94 31.28, 227.84 33.73, 230.63 36.29 C233.41 38.85, 236.1 41.54, 238.66 44.32 C241.23 47.1, 243.68 50, 246.01 52.98 C248.33 55.96, 250.54 59.05, 252.61 62.22 C254.68 65.38, 256.63 68.65, 258.43 71.97 C260.23 75.29, 261.9 78.71, 263.42 82.17 C264.94 85.63, 266.32 89.17, 267.55 92.74 C268.78 96.32, 269.86 99.96, 270.79 103.62 C271.72 107.28, 272.5 111, 273.12 114.73 C273.75 118.46, 274.22 122.23, 274.53 125.99 C274.84 129.76, 275 133.55, 275 137.33" stroke="#000000" stroke-width="4" fill="none"></path></g><g transform="translate(1748.6673617892802 424.50010172526044) rotate(0 132.5000000000001 21.5)"><text x="132.5" y="35" font-family="Helvetica, Segoe UI Emoji" font-size="36px" fill="#000000" text-anchor="middle" style="white-space: pre;" direction="ltr">SUPERMAN</text></g><g stroke-linecap="round" transform="translate(2060.7784729003906 308.6666819254557) rotate(0 137.5 137.33341979980474)"><path d="M275 137.33 C275 141.11, 274.84 144.91, 274.53 148.67 C274.22 152.44, 273.75 156.21, 273.12 159.94 C272.5 163.67, 271.72 167.38, 270.79 171.05 C269.86 174.71, 268.78 178.35, 267.55 181.93 C266.32 185.5, 264.94 189.04, 263.42 192.5 C261.9 195.96, 260.23 199.37, 258.43 202.7 C256.63 206.02, 254.68 209.28, 252.61 212.45 C250.54 215.61, 248.33 218.7, 246.01 221.69 C243.68 224.67, 241.23 227.57, 238.66 230.35 C236.1 233.13, 233.41 235.81, 230.63 238.37 C227.84 240.93, 224.94 243.39, 221.95 245.71 C218.97 248.03, 215.87 250.24, 212.71 252.3 C209.54 254.37, 206.27 256.32, 202.94 258.11 C199.61 259.91, 196.2 261.58, 192.73 263.1 C189.27 264.62, 185.73 266, 182.15 267.23 C178.57 268.45, 174.92 269.54, 171.25 270.46 C167.59 271.39, 163.87 272.17, 160.13 272.79 C156.4 273.42, 152.63 273.89, 148.85 274.2 C145.08 274.51, 141.28 274.67, 137.5 274.67 C133.72 274.67, 129.92 274.51, 126.15 274.2 C122.37 273.89, 118.6 273.42, 114.87 272.79 C111.13 272.17, 107.41 271.39, 103.75 270.46 C100.08 269.54, 96.43 268.45, 92.85 267.23 C89.27 266, 85.73 264.62, 82.27 263.1 C78.8 261.58, 75.39 259.91, 72.06 258.11 C68.73 256.32, 65.46 254.37, 62.29 252.3 C59.13 250.24, 56.03 248.03, 53.05 245.71 C50.06 243.39, 47.16 240.93, 44.37 238.37 C41.59 235.81, 38.9 233.13, 36.34 230.35 C33.77 227.57, 31.32 224.67, 28.99 221.69 C26.67 218.7, 24.46 215.61, 22.39 212.45 C20.32 209.28, 18.37 206.02, 16.57 202.7 C14.77 199.37, 13.1 195.96, 11.58 192.5 C10.06 189.04, 8.68 185.5, 7.45 181.93 C6.22 178.35, 5.14 174.71, 4.21 171.05 C3.28 167.38, 2.5 163.67, 1.88 159.94 C1.25 156.21, 0.78 152.44, 0.47 148.67 C0.16 144.91, 0 141.11, 0 137.33 C0 133.55, 0.16 129.76, 0.47 125.99 C0.78 122.23, 1.25 118.46, 1.88 114.73 C2.5 111, 3.28 107.28, 4.21 103.62 C5.14 99.96, 6.22 96.32, 7.45 92.74 C8.68 89.17, 10.06 85.63, 11.58 82.17 C13.1 78.71, 14.77 75.29, 16.57 71.97 C18.37 68.65, 20.32 65.38, 22.39 62.22 C24.46 59.05, 26.67 55.96, 28.99 52.98 C31.32 50, 33.77 47.1, 36.34 44.32 C38.9 41.54, 41.59 38.85, 44.37 36.29 C47.16 33.73, 50.06 31.28, 53.05 28.96 C56.03 26.64, 59.13 24.43, 62.29 22.36 C65.46 20.29, 68.73 18.35, 72.06 16.55 C75.39 14.75, 78.8 13.09, 82.27 11.57 C85.73 10.05, 89.27 8.67, 92.85 7.44 C96.43 6.21, 100.08 5.13, 103.75 4.2 C107.41 3.27, 111.13 2.5, 114.87 1.87 C118.6 1.25, 122.37 0.78, 126.15 0.47 C129.92 0.16, 133.72 0, 137.5 0 C141.28 0, 145.08 0.16, 148.85 0.47 C152.63 0.78, 156.4 1.25, 160.13 1.87 C163.87 2.5, 167.59 3.27, 171.25 4.2 C174.92 5.13, 178.57 6.21, 182.15 7.44 C185.73 8.67, 189.27 10.05, 192.73 11.57 C196.2 13.09, 199.61 14.75, 202.94 16.55 C206.27 18.35, 209.54 20.29, 212.71 22.36 C215.87 24.43, 218.97 26.64, 221.95 28.96 C224.94 31.28, 227.84 33.73, 230.63 36.29 C233.41 38.85, 236.1 41.54, 238.66 44.32 C241.23 47.1, 243.68 50, 246.01 52.98 C248.33 55.96, 250.54 59.05, 252.61 62.22 C254.68 65.38, 256.63 68.65, 258.43 71.97 C260.23 75.29, 261.9 78.71, 263.42 82.17 C264.94 85.63, 266.32 89.17, 267.55 92.74 C268.78 96.32, 269.86 99.96, 270.79 103.62 C271.72 107.28, 272.5 111, 273.12 114.73 C273.75 118.46, 274.22 122.23, 274.53 125.99 C274.84 129.76, 275 133.55, 275 137.33" stroke="#000000" stroke-width="4" fill="none"></path></g><g transform="translate(2065.7784729003906 429.50010172526044) rotate(0 132.5 16.5)"><text x="132.5" y="25" font-family="Helvetica, Segoe UI Emoji" font-size="28px" fill="#000000" text-anchor="middle" style="white-space: pre;" direction="ltr">DEEPLEARNING</text></g><g stroke-linecap="round" transform="translate(19.16712443033998 186.00010172526044) rotate(0 1501.1113230387366 260)"><path d="M0 0 C1015.32 0, 2030.64 0, 3002.22 0 M0 0 C1053.4 0, 2106.79 0, 3002.22 0 M3002.22 0 C3002.22 134.46, 3002.22 268.92, 3002.22 520 M3002.22 0 C3002.22 177.83, 3002.22 355.66, 3002.22 520 M3002.22 520 C1958.77 520, 915.32 520, 0 520 M3002.22 520 C2337.69 520, 1673.16 520, 0 520 M0 520 C0 377.88, 0 235.76, 0 0 M0 520 C0 335.35, 0 150.69, 0 0" stroke="#000000" stroke-width="4" fill="none"></path></g><g stroke-linecap="round" transform="translate(1025.834197998048 10) rotate(0 221.11104329427087 87.77778625488278)"><path d="M0 0 C119.34 0, 238.69 0, 442.22 0 M0 0 C150.47 0, 300.93 0, 442.22 0 M442.22 0 C442.22 61.61, 442.22 123.22, 442.22 175.56 M442.22 0 C442.22 62.4, 442.22 124.8, 442.22 175.56 M442.22 175.56 C348.91 175.56, 255.59 175.56, 0 175.56 M442.22 175.56 C295.08 175.56, 147.94 175.56, 0 175.56 M0 175.56 C0 126.35, 0 77.15, 0 0 M0 175.56 C0 126.79, 0 78.02, 0 0" stroke="#000000" stroke-width="4" fill="none"></path></g><g stroke-linecap="round" transform="translate(1533.5562167697494 1154.2222290039062) rotate(0 137.4999999999999 137.33341979980474)"><path d="M275 137.33 C275 141.11, 274.84 144.91, 274.53 148.67 C274.22 152.44, 273.75 156.21, 273.12 159.94 C272.5 163.67, 271.72 167.38, 270.79 171.05 C269.86 174.71, 268.78 178.35, 267.55 181.93 C266.32 185.5, 264.94 189.04, 263.42 192.5 C261.9 195.96, 260.23 199.37, 258.43 202.7 C256.63 206.02, 254.68 209.28, 252.61 212.45 C250.54 215.61, 248.33 218.7, 246.01 221.69 C243.68 224.67, 241.23 227.57, 238.66 230.35 C236.1 233.13, 233.41 235.81, 230.63 238.37 C227.84 240.93, 224.94 243.39, 221.95 245.71 C218.97 248.03, 215.87 250.24, 212.71 252.3 C209.54 254.37, 206.27 256.32, 202.94 258.11 C199.61 259.91, 196.2 261.58, 192.73 263.1 C189.27 264.62, 185.73 266, 182.15 267.23 C178.57 268.45, 174.92 269.54, 171.25 270.46 C167.59 271.39, 163.87 272.17, 160.13 272.79 C156.4 273.42, 152.63 273.89, 148.85 274.2 C145.08 274.51, 141.28 274.67, 137.5 274.67 C133.72 274.67, 129.92 274.51, 126.15 274.2 C122.37 273.89, 118.6 273.42, 114.87 272.79 C111.13 272.17, 107.41 271.39, 103.75 270.46 C100.08 269.54, 96.43 268.45, 92.85 267.23 C89.27 266, 85.73 264.62, 82.27 263.1 C78.8 261.58, 75.39 259.91, 72.06 258.11 C68.73 256.32, 65.46 254.37, 62.29 252.3 C59.13 250.24, 56.03 248.03, 53.05 245.71 C50.06 243.39, 47.16 240.93, 44.37 238.37 C41.59 235.81, 38.9 233.13, 36.34 230.35 C33.77 227.57, 31.32 224.67, 28.99 221.69 C26.67 218.7, 24.46 215.61, 22.39 212.45 C20.32 209.28, 18.37 206.02, 16.57 202.7 C14.77 199.37, 13.1 195.96, 11.58 192.5 C10.06 189.04, 8.68 185.5, 7.45 181.93 C6.22 178.35, 5.14 174.71, 4.21 171.05 C3.28 167.38, 2.5 163.67, 1.88 159.94 C1.25 156.21, 0.78 152.44, 0.47 148.67 C0.16 144.91, 0 141.11, 0 137.33 C0 133.55, 0.16 129.76, 0.47 125.99 C0.78 122.23, 1.25 118.46, 1.88 114.73 C2.5 111, 3.28 107.28, 4.21 103.62 C5.14 99.96, 6.22 96.32, 7.45 92.74 C8.68 89.17, 10.06 85.63, 11.58 82.17 C13.1 78.71, 14.77 75.29, 16.57 71.97 C18.37 68.65, 20.32 65.38, 22.39 62.22 C24.46 59.05, 26.67 55.96, 28.99 52.98 C31.32 50, 33.77 47.1, 36.34 44.32 C38.9 41.54, 41.59 38.85, 44.37 36.29 C47.16 33.73, 50.06 31.28, 53.05 28.96 C56.03 26.64, 59.13 24.43, 62.29 22.36 C65.46 20.29, 68.73 18.35, 72.06 16.55 C75.39 14.75, 78.8 13.09, 82.27 11.57 C85.73 10.05, 89.27 8.67, 92.85 7.44 C96.43 6.21, 100.08 5.13, 103.75 4.2 C107.41 3.27, 111.13 2.5, 114.87 1.87 C118.6 1.25, 122.37 0.78, 126.15 0.47 C129.92 0.16, 133.72 0, 137.5 0 C141.28 0, 145.08 0.16, 148.85 0.47 C152.63 0.78, 156.4 1.25, 160.13 1.87 C163.87 2.5, 167.59 3.27, 171.25 4.2 C174.92 5.13, 178.57 6.21, 182.15 7.44 C185.73 8.67, 189.27 10.05, 192.73 11.57 C196.2 13.09, 199.61 14.75, 202.94 16.55 C206.27 18.35, 209.54 20.29, 212.71 22.36 C215.87 24.43, 218.97 26.64, 221.95 28.96 C224.94 31.28, 227.84 33.73, 230.63 36.29 C233.41 38.85, 236.1 41.54, 238.66 44.32 C241.23 47.1, 243.68 50, 246.01 52.98 C248.33 55.96, 250.54 59.05, 252.61 62.22 C254.68 65.38, 256.63 68.65, 258.43 71.97 C260.23 75.29, 261.9 78.71, 263.42 82.17 C264.94 85.63, 266.32 89.17, 267.55 92.74 C268.78 96.32, 269.86 99.96, 270.79 103.62 C271.72 107.28, 272.5 111, 273.12 114.73 C273.75 118.46, 274.22 122.23, 274.53 125.99 C274.84 129.76, 275 133.55, 275 137.33" stroke="#000000" stroke-width="4" fill="none"></path></g><g transform="translate(1538.5562167697494 1275.055648803711) rotate(0 132.4999999999999 16.5)"><text x="132.5" y="25" font-family="Helvetica, Segoe UI Emoji" font-size="28px" fill="#000000" text-anchor="middle" style="white-space: pre;" direction="ltr">PHOTOGRAPH</text></g><g stroke-linecap="round" transform="translate(1216.4451056586383 1154.2222290039062) rotate(0 137.5 137.33341979980474)"><path d="M275 137.33 C275 141.11, 274.84 144.91, 274.53 148.67 C274.22 152.44, 273.75 156.21, 273.12 159.94 C272.5 163.67, 271.72 167.38, 270.79 171.05 C269.86 174.71, 268.78 178.35, 267.55 181.93 C266.32 185.5, 264.94 189.04, 263.42 192.5 C261.9 195.96, 260.23 199.37, 258.43 202.7 C256.63 206.02, 254.68 209.28, 252.61 212.45 C250.54 215.61, 248.33 218.7, 246.01 221.69 C243.68 224.67, 241.23 227.57, 238.66 230.35 C236.1 233.13, 233.41 235.81, 230.63 238.37 C227.84 240.93, 224.94 243.39, 221.95 245.71 C218.97 248.03, 215.87 250.24, 212.71 252.3 C209.54 254.37, 206.27 256.32, 202.94 258.11 C199.61 259.91, 196.2 261.58, 192.73 263.1 C189.27 264.62, 185.73 266, 182.15 267.23 C178.57 268.45, 174.92 269.54, 171.25 270.46 C167.59 271.39, 163.87 272.17, 160.13 272.79 C156.4 273.42, 152.63 273.89, 148.85 274.2 C145.08 274.51, 141.28 274.67, 137.5 274.67 C133.72 274.67, 129.92 274.51, 126.15 274.2 C122.37 273.89, 118.6 273.42, 114.87 272.79 C111.13 272.17, 107.41 271.39, 103.75 270.46 C100.08 269.54, 96.43 268.45, 92.85 267.23 C89.27 266, 85.73 264.62, 82.27 263.1 C78.8 261.58, 75.39 259.91, 72.06 258.11 C68.73 256.32, 65.46 254.37, 62.29 252.3 C59.13 250.24, 56.03 248.03, 53.05 245.71 C50.06 243.39, 47.16 240.93, 44.37 238.37 C41.59 235.81, 38.9 233.13, 36.34 230.35 C33.77 227.57, 31.32 224.67, 28.99 221.69 C26.67 218.7, 24.46 215.61, 22.39 212.45 C20.32 209.28, 18.37 206.02, 16.57 202.7 C14.77 199.37, 13.1 195.96, 11.58 192.5 C10.06 189.04, 8.68 185.5, 7.45 181.93 C6.22 178.35, 5.14 174.71, 4.21 171.05 C3.28 167.38, 2.5 163.67, 1.88 159.94 C1.25 156.21, 0.78 152.44, 0.47 148.67 C0.16 144.91, 0 141.11, 0 137.33 C0 133.55, 0.16 129.76, 0.47 125.99 C0.78 122.23, 1.25 118.46, 1.88 114.73 C2.5 111, 3.28 107.28, 4.21 103.62 C5.14 99.96, 6.22 96.32, 7.45 92.74 C8.68 89.17, 10.06 85.63, 11.58 82.17 C13.1 78.71, 14.77 75.29, 16.57 71.97 C18.37 68.65, 20.32 65.38, 22.39 62.22 C24.46 59.05, 26.67 55.96, 28.99 52.98 C31.32 50, 33.77 47.1, 36.34 44.32 C38.9 41.54, 41.59 38.85, 44.37 36.29 C47.16 33.73, 50.06 31.28, 53.05 28.96 C56.03 26.64, 59.13 24.43, 62.29 22.36 C65.46 20.29, 68.73 18.35, 72.06 16.55 C75.39 14.75, 78.8 13.09, 82.27 11.57 C85.73 10.05, 89.27 8.67, 92.85 7.44 C96.43 6.21, 100.08 5.13, 103.75 4.2 C107.41 3.27, 111.13 2.5, 114.87 1.87 C118.6 1.25, 122.37 0.78, 126.15 0.47 C129.92 0.16, 133.72 0, 137.5 0 C141.28 0, 145.08 0.16, 148.85 0.47 C152.63 0.78, 156.4 1.25, 160.13 1.87 C163.87 2.5, 167.59 3.27, 171.25 4.2 C174.92 5.13, 178.57 6.21, 182.15 7.44 C185.73 8.67, 189.27 10.05, 192.73 11.57 C196.2 13.09, 199.61 14.75, 202.94 16.55 C206.27 18.35, 209.54 20.29, 212.71 22.36 C215.87 24.43, 218.97 26.64, 221.95 28.96 C224.94 31.28, 227.84 33.73, 230.63 36.29 C233.41 38.85, 236.1 41.54, 238.66 44.32 C241.23 47.1, 243.68 50, 246.01 52.98 C248.33 55.96, 250.54 59.05, 252.61 62.22 C254.68 65.38, 256.63 68.65, 258.43 71.97 C260.23 75.29, 261.9 78.71, 263.42 82.17 C264.94 85.63, 266.32 89.17, 267.55 92.74 C268.78 96.32, 269.86 99.96, 270.79 103.62 C271.72 107.28, 272.5 111, 273.12 114.73 C273.75 118.46, 274.22 122.23, 274.53 125.99 C274.84 129.76, 275 133.55, 275 137.33" stroke="#000000" stroke-width="4" fill="none"></path></g><g transform="translate(1221.4451056586383 1270.055648803711) rotate(0 132.5 21.5)"><text x="132.5" y="35" font-family="Helvetica, Segoe UI Emoji" font-size="36px" fill="#000000" text-anchor="middle" style="white-space: pre;" direction="ltr">DATING</text></g><g transform="translate(1415.0006612141938 1536.1727633068936) rotate(0 97.5 40)"><text x="0" y="64" font-family="Cascadia, Segoe UI Emoji" font-size="66.14628813855731px" fill="#000000" text-anchor="start" style="white-space: pre;" direction="ltr">LIKES</text></g><g stroke-linecap="round" transform="translate(14.722798665365872 1092.6667938232422) rotate(0 1497.777862548828 196.66666666666663)"><path d="M0 0 C934.7 0, 1869.4 0, 2995.56 0 M0 0 C1068.13 0, 2136.26 0, 2995.56 0 M2995.56 0 C2995.56 122.74, 2995.56 245.48, 2995.56 393.33 M2995.56 0 C2995.56 151.98, 2995.56 303.96, 2995.56 393.33 M2995.56 393.33 C2099.53 393.33, 1203.51 393.33, 0 393.33 M2995.56 393.33 C1907.94 393.33, 820.32 393.33, 0 393.33 M0 393.33 C0 285.89, 0 178.45, 0 0 M0 393.33 C0 301.13, 0 208.93, 0 0" stroke="#000000" stroke-width="4" fill="none"></path></g><g stroke-linecap="round" transform="translate(1291.3896179199228 1488.222213745117) rotate(0 221.11104329427087 87.77778625488281)"><path d="M0 0 C90.8 0, 181.61 0, 442.22 0 M0 0 C102.35 0, 204.69 0, 442.22 0 M442.22 0 C442.22 52.21, 442.22 104.42, 442.22 175.56 M442.22 0 C442.22 47.52, 442.22 95.04, 442.22 175.56 M442.22 175.56 C310.67 175.56, 179.12 175.56, 0 175.56 M442.22 175.56 C350.36 175.56, 258.5 175.56, 0 175.56 M0 175.56 C0 123.01, 0 70.47, 0 0 M0 175.56 C0 129.7, 0 83.84, 0 0" stroke="#000000" stroke-width="4" fill="none"></path></g><g stroke-linecap="round" transform="translate(10 820.278142293294) rotate(0 106 83.5)"><path d="M0 0 C70.29 0, 140.58 0, 212 0 M0 0 C64.94 0, 129.88 0, 212 0 M212 0 C212 60.41, 212 120.81, 212 167 M212 0 C212 37.99, 212 75.99, 212 167 M212 167 C150.61 167, 89.22 167, 0 167 M212 167 C155.63 167, 99.26 167, 0 167 M0 167 C0 131.25, 0 95.51, 0 0 M0 167 C0 121.35, 0 75.71, 0 0" stroke="#000000" stroke-width="4" fill="none"></path></g><g transform="translate(15 882.278142293294) rotate(0 101 21.5)"><text x="101" y="35" font-family="Cascadia, Segoe UI Emoji" font-size="36px" fill="#000000" text-anchor="middle" style="white-space: pre;" direction="ltr">TURZA</text></g><g stroke-linecap="round" transform="translate(236.66668701171858 820.2781422932942) rotate(0 105.99999999999997 83.5)"><path d="M0 0 C68.04 0, 136.07 0, 212 0 M0 0 C63.74 0, 127.49 0, 212 0 M212 0 C212 37.83, 212 75.66, 212 167 M212 0 C212 58.92, 212 117.84, 212 167 M212 167 C163.7 167, 115.4 167, 0 167 M212 167 C142.49 167, 72.98 167, 0 167 M0 167 C0 119.53, 0 72.05, 0 0 M0 167 C0 109.58, 0 52.16, 0 0" stroke="#000000" stroke-width="4" fill="none"></path></g><g transform="translate(241.66668701171858 882.2781422932942) rotate(0 100.99999999999997 21.5)"><text x="101" y="35" font-family="Cascadia, Segoe UI Emoji" font-size="36px" fill="#000000" text-anchor="middle" style="white-space: pre;" direction="ltr">SADHIN</text></g><g stroke-linecap="round" transform="translate(463.33337402343716 820.2781422932942) rotate(0 106 83.5)"><path d="M0 0 C80.39 0, 160.78 0, 212 0 M0 0 C73.42 0, 146.85 0, 212 0 M212 0 C212 55.27, 212 110.53, 212 167 M212 0 C212 55.14, 212 110.27, 212 167 M212 167 C144.95 167, 77.9 167, 0 167 M212 167 C166.89 167, 121.79 167, 0 167 M0 167 C0 116.39, 0 65.79, 0 0 M0 167 C0 107.4, 0 47.8, 0 0" stroke="#000000" stroke-width="4" fill="none"></path></g><g transform="translate(468.33337402343716 882.2781422932942) rotate(0 101 21.5)"><text x="101" y="35" font-family="Cascadia, Segoe UI Emoji" font-size="36px" fill="#000000" text-anchor="middle" style="white-space: pre;" direction="ltr">UDOY</text></g><g stroke-linecap="round" transform="translate(690.0000610351557 820.278142293294) rotate(0 105.99999999999994 83.5)"><path d="M0 0 C57.74 0, 115.48 0, 212 0 M0 0 C60.61 0, 121.22 0, 212 0 M212 0 C212 41.64, 212 83.27, 212 167 M212 0 C212 56.77, 212 113.54, 212 167 M212 167 C135.73 167, 59.46 167, 0 167 M212 167 C148.24 167, 84.48 167, 0 167 M0 167 C0 105.1, 0 43.21, 0 0 M0 167 C0 131.14, 0 95.28, 0 0" stroke="#000000" stroke-width="4" fill="none"></path></g><g transform="translate(695.0000610351558 882.278142293294) rotate(0 101 21.5)"><text x="101" y="35" font-family="Cascadia, Segoe UI Emoji" font-size="36px" fill="#000000" text-anchor="middle" style="white-space: pre;" direction="ltr">RAJESH</text></g><g stroke-linecap="round" transform="translate(916.6667480468743 820.2781422932942) rotate(0 106 83.5)"><path d="M0 0 C53.19 0, 106.38 0, 212 0 M0 0 C67.69 0, 135.38 0, 212 0 M212 0 C212 56.35, 212 112.69, 212 167 M212 0 C212 59.61, 212 119.23, 212 167 M212 167 C129.49 167, 46.98 167, 0 167 M212 167 C162.12 167, 112.25 167, 0 167 M0 167 C0 128.3, 0 89.6, 0 0 M0 167 C0 121.09, 0 75.19, 0 0" stroke="#000000" stroke-width="4" fill="none"></path></g><g transform="translate(921.6667480468743 882.2781422932942) rotate(0 101 21.5)"><text x="101" y="35" font-family="Cascadia, Segoe UI Emoji" font-size="36px" fill="#000000" text-anchor="middle" style="white-space: pre;" direction="ltr">MINHAJ</text></g><g stroke-linecap="round" transform="translate(1143.3334350585928 820.278142293294) rotate(0 106 83.5)"><path d="M0 0 C58.28 0, 116.55 0, 212 0 M0 0 C53.1 0, 106.21 0, 212 0 M212 0 C212 40.8, 212 81.61, 212 167 M212 0 C212 58.51, 212 117.03, 212 167 M212 167 C158.91 167, 105.82 167, 0 167 M212 167 C166.39 167, 120.78 167, 0 167 M0 167 C0 112.05, 0 57.1, 0 0 M0 167 C0 122.47, 0 77.94, 0 0" stroke="#000000" stroke-width="4" fill="none"></path></g><g transform="translate(1148.3334350585928 882.278142293294) rotate(0 101 21.5)"><text x="101" y="35" font-family="Cascadia, Segoe UI Emoji" font-size="36px" fill="#000000" text-anchor="middle" style="white-space: pre;" direction="ltr">TANU</text></g><g stroke-linecap="round" transform="translate(1370.0001220703114 820.278142293294) rotate(0 106 83.5)"><path d="M0 0 C57.95 0, 115.9 0, 212 0 M0 0 C50.92 0, 101.84 0, 212 0 M212 0 C212 37.45, 212 74.9, 212 167 M212 0 C212 43.61, 212 87.22, 212 167 M212 167 C132.26 167, 52.53 167, 0 167 M212 167 C130.28 167, 48.56 167, 0 167 M0 167 C0 126.46, 0 85.92, 0 0 M0 167 C0 106.44, 0 45.87, 0 0" stroke="#000000" stroke-width="4" fill="none"></path></g><g transform="translate(1375.0001220703114 882.278142293294) rotate(0 101 21.5)"><text x="101" y="35" font-family="Cascadia, Segoe UI Emoji" font-size="36px" fill="#000000" text-anchor="middle" style="white-space: pre;" direction="ltr">BIPRO</text></g><g stroke-linecap="round" transform="translate(1596.6668090820299 820.278142293294) rotate(0 105.99999999999989 83.5)"><path d="M0 0 C62.9 0, 125.79 0, 212 0 M0 0 C80.67 0, 161.34 0, 212 0 M212 0 C212 46.07, 212 92.13, 212 167 M212 0 C212 56.78, 212 113.56, 212 167 M212 167 C145.49 167, 78.97 167, 0 167 M212 167 C159.71 167, 107.42 167, 0 167 M0 167 C0 129.7, 0 92.4, 0 0 M0 167 C0 117.17, 0 67.34, 0 0" stroke="#000000" stroke-width="4" fill="none"></path></g><g transform="translate(1601.6668090820294 882.278142293294) rotate(0 101.00000000000011 21.5)"><text x="101" y="35" font-family="Cascadia, Segoe UI Emoji" font-size="36px" fill="#000000" text-anchor="middle" style="white-space: pre;" direction="ltr">MUNNA</text></g><g stroke-linecap="round" transform="translate(1823.3334960937484 820.2781422932942) rotate(0 106 83.5)"><path d="M0 0 C74.9 0, 149.8 0, 212 0 M0 0 C48.89 0, 97.78 0, 212 0 M212 0 C212 55.5, 212 111, 212 167 M212 0 C212 35.04, 212 70.09, 212 167 M212 167 C137.69 167, 63.38 167, 0 167 M212 167 C132.81 167, 53.63 167, 0 167 M0 167 C0 132.11, 0 97.22, 0 0 M0 167 C0 132, 0 97, 0 0" stroke="#000000" stroke-width="4" fill="none"></path></g><g transform="translate(1828.3334960937484 882.2781422932942) rotate(0 101 21.5)"><text x="101" y="35" font-family="Cascadia, Segoe UI Emoji" font-size="36px" fill="#000000" text-anchor="middle" style="white-space: pre;" direction="ltr">TANVIR</text></g><g stroke-linecap="round" transform="translate(2050.000183105467 820.278142293294) rotate(0 106 83.5)"><path d="M0 0 C61.21 0, 122.43 0, 212 0 M0 0 C79.01 0, 158.02 0, 212 0 M212 0 C212 50.02, 212 100.03, 212 167 M212 0 C212 42.67, 212 85.34, 212 167 M212 167 C128.1 167, 44.19 167, 0 167 M212 167 C141.68 167, 71.36 167, 0 167 M0 167 C0 109.57, 0 52.15, 0 0 M0 167 C0 105.2, 0 43.4, 0 0" stroke="#000000" stroke-width="4" fill="none"></path></g><g transform="translate(2055.000183105467 882.278142293294) rotate(0 101 21.5)"><text x="101" y="35" font-family="Cascadia, Segoe UI Emoji" font-size="36px" fill="#000000" text-anchor="middle" style="white-space: pre;" direction="ltr">ARIF</text></g><g stroke-linecap="round" transform="translate(2276.6668701171857 820.2781422932941) rotate(0 106 83.50000000000003)"><path d="M0 0 C83.41 0, 166.82 0, 212 0 M0 0 C73.31 0, 146.63 0, 212 0 M212 0 C212 43.44, 212 86.87, 212 167 M212 0 C212 48.81, 212 97.63, 212 167 M212 167 C167.86 167, 123.73 167, 0 167 M212 167 C146.17 167, 80.35 167, 0 167 M0 167 C0 112.73, 0 58.47, 0 0 M0 167 C0 119.14, 0 71.28, 0 0" stroke="#000000" stroke-width="4" fill="none"></path></g><g transform="translate(2281.6668701171857 882.2781422932941) rotate(0 101 21.5)"><text x="101" y="35" font-family="Cascadia, Segoe UI Emoji" font-size="36px" fill="#000000" text-anchor="middle" style="white-space: pre;" direction="ltr">ISMAIL</text></g><g stroke-linecap="round"><g transform="translate(121.3890584309894 821.5558268229163) rotate(0 254.44442749023432 -117.77776082356769)"><path d="M0 0 C0 -49.16, 0 -98.32, 0 -153.33 M0 0 C0 -37.91, 0 -75.83, 0 -153.33 M0 -153.33 C131.75 -153.33, 263.51 -153.33, 508.89 -153.33 M0 -153.33 C152.15 -153.33, 304.3 -153.33, 508.89 -153.33 M508.89 -153.33 C508.89 -175.95, 508.89 -198.56, 508.89 -235.56 M508.89 -153.33 C508.89 -175.14, 508.89 -196.94, 508.89 -235.56" stroke="#000000" stroke-width="4" fill="none"></path></g><g transform="translate(121.3890584309894 821.5558268229163) rotate(0 254.44442749023432 -117.77776082356769)"><path d="M519.15 -207.36 C515.86 -216.4, 512.57 -225.44, 508.89 -235.56 M519.15 -207.36 C516.61 -214.34, 514.08 -221.31, 508.89 -235.56" stroke="#000000" stroke-width="4" fill="none"></path></g><g transform="translate(121.3890584309894 821.5558268229163) rotate(0 254.44442749023432 -117.77776082356769)"><path d="M498.63 -207.36 C501.92 -216.4, 505.21 -225.44, 508.89 -235.56 M498.63 -207.36 C501.17 -214.34, 503.7 -221.31, 508.89 -235.56" stroke="#000000" stroke-width="4" fill="none"></path></g></g><g stroke-linecap="round"><g transform="translate(339.1667683919269 821.5558268229163) rotate(0 307.7777608235677 -117.77778625488276)"><path d="M0 0 C0.67 -24.86, 1.34 -49.72, 2.22 -82.22 M0 0 C0.47 -17.51, 0.95 -35.02, 2.22 -82.22 M2.22 -82.22 C210.01 -82.22, 417.79 -82.22, 615.56 -82.22 M2.22 -82.22 C239.72 -82.22, 477.22 -82.22, 615.56 -82.22 M615.56 -82.22 C614.96 -123.14, 614.37 -164.05, 613.33 -235.56 M615.56 -82.22 C614.77 -136.71, 613.98 -191.19, 613.33 -235.56" stroke="#000000" stroke-width="4" fill="none"></path></g><g transform="translate(339.1667683919269 821.5558268229163) rotate(0 307.7777608235677 -117.77778625488276)"><path d="M624 -207.52 C620.78 -215.99, 617.55 -224.47, 613.33 -235.56 M624 -207.52 C621.73 -213.49, 619.46 -219.46, 613.33 -235.56" stroke="#000000" stroke-width="4" fill="none"></path></g><g transform="translate(339.1667683919269 821.5558268229163) rotate(0 307.7777608235677 -117.77778625488276)"><path d="M603.48 -207.22 C606.46 -215.79, 609.44 -224.36, 613.33 -235.56 M603.48 -207.22 C605.58 -213.25, 607.68 -219.29, 613.33 -235.56" stroke="#000000" stroke-width="4" fill="none"></path></g></g><g stroke-linecap="round"><g transform="translate(1274.722391764323 737.1113993326821) rotate(0 -1.1111450195311363 -73.3333460489909)"><path d="M0 0 C0 0, 0 0, 0 0 M0 0 C0 0, 0 0, 0 0 M0 0 C-0.64 -42.3, -1.28 -84.61, -2.22 -146.67 M0 0 C-0.6 -39.68, -1.2 -79.37, -2.22 -146.67" stroke="#000000" stroke-width="4" fill="none"></path></g><g transform="translate(1274.722391764323 737.1113993326821) rotate(0 -1.1111450195311363 -73.3333460489909)"><path d="M8.46 -118.63 C5.91 -125.34, 3.35 -132.05, -2.22 -146.67 M8.46 -118.63 C4.95 -127.85, 1.44 -137.07, -2.22 -146.67" stroke="#000000" stroke-width="4" fill="none"></path></g><g transform="translate(1274.722391764323 737.1113993326821) rotate(0 -1.1111450195311363 -73.3333460489909)"><path d="M-12.05 -118.32 C-9.7 -125.11, -7.35 -131.89, -2.22 -146.67 M-12.05 -118.32 C-8.82 -127.64, -5.59 -136.96, -2.22 -146.67" stroke="#000000" stroke-width="4" fill="none"></path></g></g><g stroke-linecap="round"><g transform="translate(563.6109415690112 819.3336385091143) rotate(0 -137.77781168619794 -116.66666666666669)"><path d="M0 0 C0 -58.01, 0 -116.01, 0 -191.11 M0 0 C0 -69.87, 0 -139.74, 0 -191.11 M0 -191.11 C-70.11 -191.11, -140.21 -191.11, -275.56 -191.11 M0 -191.11 C-78.11 -191.11, -156.21 -191.11, -275.56 -191.11 M-275.56 -191.11 C-275.56 -202.62, -275.56 -214.12, -275.56 -233.33 M-275.56 -191.11 C-275.56 -201.53, -275.56 -211.94, -275.56 -233.33" stroke="#000000" stroke-width="4" fill="none"></path></g><g transform="translate(563.6109415690112 819.3336385091143) rotate(0 -137.77781168619794 -116.66666666666669)"><path d="M-268.34 -213.5 C-270.53 -219.52, -272.72 -225.54, -275.56 -233.33 M-268.34 -213.5 C-270.97 -220.75, -273.61 -228, -275.56 -233.33" stroke="#000000" stroke-width="4" fill="none"></path></g><g transform="translate(563.6109415690112 819.3336385091143) rotate(0 -137.77781168619794 -116.66666666666669)"><path d="M-282.78 -213.5 C-280.58 -219.52, -278.39 -225.54, -275.56 -233.33 M-282.78 -213.5 C-280.14 -220.75, -277.5 -228, -275.56 -233.33" stroke="#000000" stroke-width="4" fill="none"></path></g></g><g stroke-linecap="round"><g transform="translate(788.055521647136 819.3335367838538) rotate(0 394.4444783528645 -116.66666666666666)"><path d="M0 0 C0 -20.42, 0 -40.85, 0 -60 M0 0 C0 -18.24, 0 -36.47, 0 -60 M0 -60 C260.14 -60, 520.29 -60, 788.89 -60 M0 -60 C302.67 -60, 605.33 -60, 788.89 -60 M788.89 -60 C788.89 -119.95, 788.89 -179.9, 788.89 -233.33 M788.89 -60 C788.89 -121.07, 788.89 -182.14, 788.89 -233.33" stroke="#000000" stroke-width="4" fill="none"></path></g><g transform="translate(788.055521647136 819.3335367838538) rotate(0 394.4444783528645 -116.66666666666666)"><path d="M799.15 -205.14 C795.66 -214.74, 792.16 -224.33, 788.89 -233.33 M799.15 -205.14 C796.03 -213.71, 792.91 -222.28, 788.89 -233.33" stroke="#000000" stroke-width="4" fill="none"></path></g><g transform="translate(788.055521647136 819.3335367838538) rotate(0 394.4444783528645 -116.66666666666666)"><path d="M778.63 -205.14 C782.12 -214.74, 785.61 -224.33, 788.89 -233.33 M778.63 -205.14 C781.75 -213.71, 784.87 -222.28, 788.89 -233.33" stroke="#000000" stroke-width="4" fill="none"></path></g></g><g stroke-linecap="round"><g transform="translate(1021.3889567057299 821.5557759602859) rotate(0 442.22229003906284 -118.88888041178382)"><path d="M0 0 C0 -60.16, 0 -120.32, 0 -157.78 M0 0 C0 -57.2, 0 -114.41, 0 -157.78 M0 -157.78 C293.81 -157.78, 587.62 -157.78, 884.44 -157.78 M0 -157.78 C312.61 -157.78, 625.21 -157.78, 884.44 -157.78 M884.44 -157.78 C884.44 -183.11, 884.44 -208.44, 884.44 -237.78 M884.44 -157.78 C884.44 -186.17, 884.44 -214.56, 884.44 -237.78" stroke="#000000" stroke-width="4" fill="none"></path></g><g transform="translate(1021.3889567057299 821.5557759602859) rotate(0 442.22229003906284 -118.88888041178382)"><path d="M894.71 -209.59 C890.79 -220.34, 886.88 -231.08, 884.44 -237.78 M894.71 -209.59 C890.99 -219.81, 887.27 -230.03, 884.44 -237.78" stroke="#000000" stroke-width="4" fill="none"></path></g><g transform="translate(1021.3889567057299 821.5557759602859) rotate(0 442.22229003906284 -118.88888041178382)"><path d="M874.18 -209.59 C878.1 -220.34, 882.01 -231.08, 884.44 -237.78 M874.18 -209.59 C877.9 -219.81, 881.62 -230.03, 884.44 -237.78" stroke="#000000" stroke-width="4" fill="none"></path></g></g><g stroke-linecap="round"><g transform="translate(630.2779134114595 668.2224426269524) rotate(0 288.8888549804689 -47.77776082356769)"><path d="M0 0 C87.71 0, 175.43 0, 366.67 0 M0 0 C101.12 0, 202.24 0, 366.67 0 M366.67 0 C366.67 -21.08, 366.67 -42.16, 366.67 -53.33 M366.67 0 C366.67 -12.74, 366.67 -25.48, 366.67 -53.33 M366.67 -53.33 C433.22 -53.33, 499.76 -53.33, 577.78 -53.33 M366.67 -53.33 C442.56 -53.33, 518.45 -53.33, 577.78 -53.33 M577.78 -53.33 C577.78 -65.63, 577.78 -77.93, 577.78 -95.56 M577.78 -53.33 C577.78 -62.77, 577.78 -72.22, 577.78 -95.56" stroke="#000000" stroke-width="4" fill="none"></path></g><g transform="translate(630.2779134114595 668.2224426269524) rotate(0 288.8888549804689 -47.77776082356769)"><path d="M585 -75.72 C583.27 -80.46, 581.54 -85.21, 577.78 -95.56 M585 -75.72 C583.01 -81.19, 581.02 -86.66, 577.78 -95.56" stroke="#000000" stroke-width="4" fill="none"></path></g><g transform="translate(630.2779134114595 668.2224426269524) rotate(0 288.8888549804689 -47.77776082356769)"><path d="M570.56 -75.72 C572.28 -80.46, 574.01 -85.21, 577.78 -95.56 M570.56 -75.72 C572.55 -81.19, 574.54 -86.66, 577.78 -95.56" stroke="#000000" stroke-width="4" fill="none"></path></g></g><g stroke-linecap="round"><g transform="translate(1259.1666158040382 819.3335876464837) rotate(0 484.37229041170167 -115.03364878720944)"><path d="M0 0 C0 -41.31, 0 -82.61, 0 -140 M0 0 C0 -35.53, 0 -71.06, 0 -140 M0 -140 C327.13 -140, 654.26 -140, 964.44 -140 M0 -140 C341 -140, 681.99 -140, 964.44 -140 M964.44 -140 C965.94 -171.37, 967.44 -202.74, 968.74 -230.07 M964.44 -140 C966.11 -174.84, 967.77 -209.68, 968.74 -230.07" stroke="#000000" stroke-width="4" fill="none"></path></g><g transform="translate(1259.1666158040382 819.3335876464837) rotate(0 484.37229041170167 -115.03364878720944)"><path d="M977.65 -201.42 C975.02 -209.87, 972.39 -218.32, 968.74 -230.07 M977.65 -201.42 C975.39 -208.69, 973.13 -215.96, 968.74 -230.07" stroke="#000000" stroke-width="4" fill="none"></path></g><g transform="translate(1259.1666158040382 819.3335876464837) rotate(0 484.37229041170167 -115.03364878720944)"><path d="M957.15 -202.4 C960.57 -210.56, 963.99 -218.73, 968.74 -230.07 M957.15 -202.4 C960.09 -209.42, 963.04 -216.44, 968.74 -230.07" stroke="#000000" stroke-width="4" fill="none"></path></g></g><g stroke-linecap="round"><g transform="translate(1474.7222391764342 821.5557759602858) rotate(0 -64.44447835286451 -143.33333333333334)"><path d="M0 0 C0 -61.76, 0 -123.51, 0 -220 M0 0 C0 -61.3, 0 -122.61, 0 -220 M0 -220 C-42.92 -220, -85.84 -220, -128.89 -220 M0 -220 C-35.42 -220, -70.83 -220, -128.89 -220 M-128.89 -220 C-128.89 -239.8, -128.89 -259.6, -128.89 -286.67 M-128.89 -220 C-128.89 -246.12, -128.89 -272.24, -128.89 -286.67" stroke="#000000" stroke-width="4" fill="none"></path></g><g transform="translate(1474.7222391764342 821.5557759602858) rotate(0 -64.44447835286451 -143.33333333333334)"><path d="M-118.63 -258.48 C-121.51 -266.39, -124.39 -274.3, -128.89 -286.67 M-118.63 -258.48 C-121.49 -266.33, -124.35 -274.19, -128.89 -286.67" stroke="#000000" stroke-width="4" fill="none"></path></g><g transform="translate(1474.7222391764342 821.5557759602858) rotate(0 -64.44447835286451 -143.33333333333334)"><path d="M-139.15 -258.48 C-136.27 -266.39, -133.39 -274.3, -128.89 -286.67 M-139.15 -258.48 C-136.29 -266.33, -133.43 -274.19, -128.89 -286.67" stroke="#000000" stroke-width="4" fill="none"></path></g></g><g stroke-linecap="round"><g transform="translate(1719.1664123535177 821.5556996663408) rotate(0 -385.5555216471355 -278.8889058430991)"><path d="M0 0 C0 -155.71, 0 -311.42, 0 -557.78 M0 0 C0 -114.72, 0 -229.45, 0 -557.78 M0 -557.78 C-243.1 -557.78, -486.21 -557.78, -771.11 -557.78 M0 -557.78 C-161.28 -557.78, -322.56 -557.78, -771.11 -557.78 M-771.11 -557.78 C-771.11 -545.3, -771.11 -532.81, -771.11 -508.89 M-771.11 -557.78 C-771.11 -545.39, -771.11 -533, -771.11 -508.89" stroke="#000000" stroke-width="4" fill="none"></path></g><g transform="translate(1719.1664123535177 821.5556996663408) rotate(0 -385.5555216471355 -278.8889058430991)"><path d="M-779.47 -531.86 C-777.14 -525.45, -774.8 -519.03, -771.11 -508.89 M-779.47 -531.86 C-777.75 -527.13, -776.03 -522.41, -771.11 -508.89" stroke="#000000" stroke-width="4" fill="none"></path></g><g transform="translate(1719.1664123535177 821.5556996663408) rotate(0 -385.5555216471355 -278.8889058430991)"><path d="M-762.75 -531.86 C-765.08 -525.45, -767.42 -519.03, -771.11 -508.89 M-762.75 -531.86 C-764.47 -527.13, -766.19 -522.41, -771.11 -508.89" stroke="#000000" stroke-width="4" fill="none"></path></g></g><g stroke-linecap="round" transform="translate(2371.889516194662 308.6666819254557) rotate(0 137.5 137.33341979980474)"><path d="M275 137.33 C275 141.11, 274.84 144.91, 274.53 148.67 C274.22 152.44, 273.75 156.21, 273.12 159.94 C272.5 163.67, 271.72 167.38, 270.79 171.05 C269.86 174.71, 268.78 178.35, 267.55 181.93 C266.32 185.5, 264.94 189.04, 263.42 192.5 C261.9 195.96, 260.23 199.37, 258.43 202.7 C256.63 206.02, 254.68 209.28, 252.61 212.45 C250.54 215.61, 248.33 218.7, 246.01 221.69 C243.68 224.67, 241.23 227.57, 238.66 230.35 C236.1 233.13, 233.41 235.81, 230.63 238.37 C227.84 240.93, 224.94 243.39, 221.95 245.71 C218.97 248.03, 215.87 250.24, 212.71 252.3 C209.54 254.37, 206.27 256.32, 202.94 258.11 C199.61 259.91, 196.2 261.58, 192.73 263.1 C189.27 264.62, 185.73 266, 182.15 267.23 C178.57 268.45, 174.92 269.54, 171.25 270.46 C167.59 271.39, 163.87 272.17, 160.13 272.79 C156.4 273.42, 152.63 273.89, 148.85 274.2 C145.08 274.51, 141.28 274.67, 137.5 274.67 C133.72 274.67, 129.92 274.51, 126.15 274.2 C122.37 273.89, 118.6 273.42, 114.87 272.79 C111.13 272.17, 107.41 271.39, 103.75 270.46 C100.08 269.54, 96.43 268.45, 92.85 267.23 C89.27 266, 85.73 264.62, 82.27 263.1 C78.8 261.58, 75.39 259.91, 72.06 258.11 C68.73 256.32, 65.46 254.37, 62.29 252.3 C59.13 250.24, 56.03 248.03, 53.05 245.71 C50.06 243.39, 47.16 240.93, 44.37 238.37 C41.59 235.81, 38.9 233.13, 36.34 230.35 C33.77 227.57, 31.32 224.67, 28.99 221.69 C26.67 218.7, 24.46 215.61, 22.39 212.45 C20.32 209.28, 18.37 206.02, 16.57 202.7 C14.77 199.37, 13.1 195.96, 11.58 192.5 C10.06 189.04, 8.68 185.5, 7.45 181.93 C6.22 178.35, 5.14 174.71, 4.21 171.05 C3.28 167.38, 2.5 163.67, 1.88 159.94 C1.25 156.21, 0.78 152.44, 0.47 148.67 C0.16 144.91, 0 141.11, 0 137.33 C0 133.55, 0.16 129.76, 0.47 125.99 C0.78 122.23, 1.25 118.46, 1.88 114.73 C2.5 111, 3.28 107.28, 4.21 103.62 C5.14 99.96, 6.22 96.32, 7.45 92.74 C8.68 89.17, 10.06 85.63, 11.58 82.17 C13.1 78.71, 14.77 75.29, 16.57 71.97 C18.37 68.65, 20.32 65.38, 22.39 62.22 C24.46 59.05, 26.67 55.96, 28.99 52.98 C31.32 50, 33.77 47.1, 36.34 44.32 C38.9 41.54, 41.59 38.85, 44.37 36.29 C47.16 33.73, 50.06 31.28, 53.05 28.96 C56.03 26.64, 59.13 24.43, 62.29 22.36 C65.46 20.29, 68.73 18.35, 72.06 16.55 C75.39 14.75, 78.8 13.09, 82.27 11.57 C85.73 10.05, 89.27 8.67, 92.85 7.44 C96.43 6.21, 100.08 5.13, 103.75 4.2 C107.41 3.27, 111.13 2.5, 114.87 1.87 C118.6 1.25, 122.37 0.78, 126.15 0.47 C129.92 0.16, 133.72 0, 137.5 0 C141.28 0, 145.08 0.16, 148.85 0.47 C152.63 0.78, 156.4 1.25, 160.13 1.87 C163.87 2.5, 167.59 3.27, 171.25 4.2 C174.92 5.13, 178.57 6.21, 182.15 7.44 C185.73 8.67, 189.27 10.05, 192.73 11.57 C196.2 13.09, 199.61 14.75, 202.94 16.55 C206.27 18.35, 209.54 20.29, 212.71 22.36 C215.87 24.43, 218.97 26.64, 221.95 28.96 C224.94 31.28, 227.84 33.73, 230.63 36.29 C233.41 38.85, 236.1 41.54, 238.66 44.32 C241.23 47.1, 243.68 50, 246.01 52.98 C248.33 55.96, 250.54 59.05, 252.61 62.22 C254.68 65.38, 256.63 68.65, 258.43 71.97 C260.23 75.29, 261.9 78.71, 263.42 82.17 C264.94 85.63, 266.32 89.17, 267.55 92.74 C268.78 96.32, 269.86 99.96, 270.79 103.62 C271.72 107.28, 272.5 111, 273.12 114.73 C273.75 118.46, 274.22 122.23, 274.53 125.99 C274.84 129.76, 275 133.55, 275 137.33" stroke="#000000" stroke-width="4" fill="none"></path></g><g transform="translate(2376.889516194662 424.50010172526044) rotate(0 132.5 21.5)"><text x="132.5" y="35" font-family="Helvetica, Segoe UI Emoji" font-size="36px" fill="#000000" text-anchor="middle" style="white-space: pre;" direction="ltr">POET</text></g><g stroke-linecap="round" transform="translate(2680.7784729003906 308.6666819254557) rotate(0 137.5 137.33341979980474)"><path d="M275 137.33 C275 141.11, 274.84 144.91, 274.53 148.67 C274.22 152.44, 273.75 156.21, 273.12 159.94 C272.5 163.67, 271.72 167.38, 270.79 171.05 C269.86 174.71, 268.78 178.35, 267.55 181.93 C266.32 185.5, 264.94 189.04, 263.42 192.5 C261.9 195.96, 260.23 199.37, 258.43 202.7 C256.63 206.02, 254.68 209.28, 252.61 212.45 C250.54 215.61, 248.33 218.7, 246.01 221.69 C243.68 224.67, 241.23 227.57, 238.66 230.35 C236.1 233.13, 233.41 235.81, 230.63 238.37 C227.84 240.93, 224.94 243.39, 221.95 245.71 C218.97 248.03, 215.87 250.24, 212.71 252.3 C209.54 254.37, 206.27 256.32, 202.94 258.11 C199.61 259.91, 196.2 261.58, 192.73 263.1 C189.27 264.62, 185.73 266, 182.15 267.23 C178.57 268.45, 174.92 269.54, 171.25 270.46 C167.59 271.39, 163.87 272.17, 160.13 272.79 C156.4 273.42, 152.63 273.89, 148.85 274.2 C145.08 274.51, 141.28 274.67, 137.5 274.67 C133.72 274.67, 129.92 274.51, 126.15 274.2 C122.37 273.89, 118.6 273.42, 114.87 272.79 C111.13 272.17, 107.41 271.39, 103.75 270.46 C100.08 269.54, 96.43 268.45, 92.85 267.23 C89.27 266, 85.73 264.62, 82.27 263.1 C78.8 261.58, 75.39 259.91, 72.06 258.11 C68.73 256.32, 65.46 254.37, 62.29 252.3 C59.13 250.24, 56.03 248.03, 53.05 245.71 C50.06 243.39, 47.16 240.93, 44.37 238.37 C41.59 235.81, 38.9 233.13, 36.34 230.35 C33.77 227.57, 31.32 224.67, 28.99 221.69 C26.67 218.7, 24.46 215.61, 22.39 212.45 C20.32 209.28, 18.37 206.02, 16.57 202.7 C14.77 199.37, 13.1 195.96, 11.58 192.5 C10.06 189.04, 8.68 185.5, 7.45 181.93 C6.22 178.35, 5.14 174.71, 4.21 171.05 C3.28 167.38, 2.5 163.67, 1.88 159.94 C1.25 156.21, 0.78 152.44, 0.47 148.67 C0.16 144.91, 0 141.11, 0 137.33 C0 133.55, 0.16 129.76, 0.47 125.99 C0.78 122.23, 1.25 118.46, 1.88 114.73 C2.5 111, 3.28 107.28, 4.21 103.62 C5.14 99.96, 6.22 96.32, 7.45 92.74 C8.68 89.17, 10.06 85.63, 11.58 82.17 C13.1 78.71, 14.77 75.29, 16.57 71.97 C18.37 68.65, 20.32 65.38, 22.39 62.22 C24.46 59.05, 26.67 55.96, 28.99 52.98 C31.32 50, 33.77 47.1, 36.34 44.32 C38.9 41.54, 41.59 38.85, 44.37 36.29 C47.16 33.73, 50.06 31.28, 53.05 28.96 C56.03 26.64, 59.13 24.43, 62.29 22.36 C65.46 20.29, 68.73 18.35, 72.06 16.55 C75.39 14.75, 78.8 13.09, 82.27 11.57 C85.73 10.05, 89.27 8.67, 92.85 7.44 C96.43 6.21, 100.08 5.13, 103.75 4.2 C107.41 3.27, 111.13 2.5, 114.87 1.87 C118.6 1.25, 122.37 0.78, 126.15 0.47 C129.92 0.16, 133.72 0, 137.5 0 C141.28 0, 145.08 0.16, 148.85 0.47 C152.63 0.78, 156.4 1.25, 160.13 1.87 C163.87 2.5, 167.59 3.27, 171.25 4.2 C174.92 5.13, 178.57 6.21, 182.15 7.44 C185.73 8.67, 189.27 10.05, 192.73 11.57 C196.2 13.09, 199.61 14.75, 202.94 16.55 C206.27 18.35, 209.54 20.29, 212.71 22.36 C215.87 24.43, 218.97 26.64, 221.95 28.96 C224.94 31.28, 227.84 33.73, 230.63 36.29 C233.41 38.85, 236.1 41.54, 238.66 44.32 C241.23 47.1, 243.68 50, 246.01 52.98 C248.33 55.96, 250.54 59.05, 252.61 62.22 C254.68 65.38, 256.63 68.65, 258.43 71.97 C260.23 75.29, 261.9 78.71, 263.42 82.17 C264.94 85.63, 266.32 89.17, 267.55 92.74 C268.78 96.32, 269.86 99.96, 270.79 103.62 C271.72 107.28, 272.5 111, 273.12 114.73 C273.75 118.46, 274.22 122.23, 274.53 125.99 C274.84 129.76, 275 133.55, 275 137.33" stroke="#000000" stroke-width="4" fill="none"></path></g><g transform="translate(2685.7784729003906 424.50010172526044) rotate(0 132.5 21.5)"><text x="132.5" y="35" font-family="Helvetica, Segoe UI Emoji" font-size="36px" fill="#000000" text-anchor="middle" style="white-space: pre;" direction="ltr">MATH</text></g><g stroke-linecap="round"><g transform="translate(1925.8332316080748 819.3333587646484) rotate(0 305.5555216471355 -117.77778625488281)"><path d="M0 0 C0 -21.76, 0 -43.52, 0 -68.89 M0 0 C0 -25.57, 0 -51.14, 0 -68.89 M0 -68.89 C151 -68.89, 302 -68.89, 611.11 -68.89 M0 -68.89 C129.87 -68.89, 259.75 -68.89, 611.11 -68.89 M611.11 -68.89 C611.11 -122.15, 611.11 -175.41, 611.11 -235.56 M611.11 -68.89 C611.11 -118.97, 611.11 -169.04, 611.11 -235.56" stroke="#000000" stroke-width="4" fill="none"></path></g><g transform="translate(1925.8332316080748 819.3333587646484) rotate(0 305.5555216471355 -117.77778625488281)"><path d="M621.37 -207.36 C618.13 -216.27, 614.89 -225.18, 611.11 -235.56 M621.37 -207.36 C617.56 -217.83, 613.75 -228.29, 611.11 -235.56" stroke="#000000" stroke-width="4" fill="none"></path></g><g transform="translate(1925.8332316080748 819.3333587646484) rotate(0 305.5555216471355 -117.77778625488281)"><path d="M600.85 -207.36 C604.09 -216.27, 607.33 -225.18, 611.11 -235.56 M600.85 -207.36 C604.66 -217.83, 608.47 -228.29, 611.11 -235.56" stroke="#000000" stroke-width="4" fill="none"></path></g></g><g stroke-linecap="round"><g transform="translate(2154.721984863283 819.3333587646486) rotate(0 335.555623372396 -116.66666666666669)"><path d="M0 0 C0 -11.41, 0 -22.83, 0 -44.44 M0 0 C0 -10.76, 0 -21.52, 0 -44.44 M0 -44.44 C248.03 -44.44, 496.05 -44.44, 671.11 -44.44 M0 -44.44 C138.22 -44.44, 276.45 -44.44, 671.11 -44.44 M671.11 -44.44 C671.11 -90.94, 671.11 -137.43, 671.11 -233.33 M671.11 -44.44 C671.11 -110.69, 671.11 -176.93, 671.11 -233.33" stroke="#000000" stroke-width="4" fill="none"></path></g><g transform="translate(2154.721984863283 819.3333587646486) rotate(0 335.555623372396 -116.66666666666669)"><path d="M681.37 -205.14 C678.74 -212.38, 676.1 -219.62, 671.11 -233.33 M681.37 -205.14 C678.89 -211.97, 676.4 -218.79, 671.11 -233.33" stroke="#000000" stroke-width="4" fill="none"></path></g><g transform="translate(2154.721984863283 819.3333587646486) rotate(0 335.555623372396 -116.66666666666669)"><path d="M660.85 -205.14 C663.49 -212.38, 666.12 -219.62, 671.11 -233.33 M660.85 -205.14 C663.33 -211.97, 665.82 -218.79, 671.11 -233.33" stroke="#000000" stroke-width="4" fill="none"></path></g></g><g stroke-linecap="round"><g transform="translate(2383.6113484700545 988.2221628824873) rotate(0 -518.8888549804688 82.22223917643231)"><path d="M0 0 C0 16.06, 0 32.12, 0 55.56 M0 0 C0 20.52, 0 41.04, 0 55.56 M0 55.56 C-256.41 55.56, -512.81 55.56, -1037.78 55.56 M0 55.56 C-261.46 55.56, -522.92 55.56, -1037.78 55.56 M-1037.78 55.56 C-1037.78 87.43, -1037.78 119.31, -1037.78 164.44 M-1037.78 55.56 C-1037.78 91.06, -1037.78 126.56, -1037.78 164.44" stroke="#000000" stroke-width="4" fill="none"></path></g><g transform="translate(2383.6113484700545 988.2221628824873) rotate(0 -518.8888549804688 82.22223917643231)"><path d="M-1048.04 136.25 C-1045.07 144.4, -1042.11 152.55, -1037.78 164.44 M-1048.04 136.25 C-1044.25 146.67, -1040.46 157.08, -1037.78 164.44" stroke="#000000" stroke-width="4" fill="none"></path></g><g transform="translate(2383.6113484700545 988.2221628824873) rotate(0 -518.8888549804688 82.22223917643231)"><path d="M-1027.52 136.25 C-1030.48 144.4, -1033.45 152.55, -1037.78 164.44 M-1027.52 136.25 C-1031.31 146.67, -1035.1 157.08, -1037.78 164.44" stroke="#000000" stroke-width="4" fill="none"></path></g></g><g stroke-linecap="round"><g transform="translate(799.16687011719 985.9999745686853) rotate(0 207.77776082356763 162.2222391764323)"><path d="M0 0 C0 96.86, 0 193.73, 0 324.44 M0 0 C0 94.04, 0 188.08, 0 324.44 M0 324.44 C118.12 324.44, 236.25 324.44, 415.56 324.44 M0 324.44 C86 324.44, 171.99 324.44, 415.56 324.44" stroke="#000000" stroke-width="4" fill="none"></path></g><g transform="translate(799.16687011719 985.9999745686853) rotate(0 207.77776082356763 162.2222391764323)"><path d="M387.36 334.71 C395.78 331.64, 404.2 328.58, 415.56 324.44 M387.36 334.71 C395.54 331.73, 403.71 328.76, 415.56 324.44" stroke="#000000" stroke-width="4" fill="none"></path></g><g transform="translate(799.16687011719 985.9999745686853) rotate(0 207.77776082356763 162.2222391764323)"><path d="M387.36 314.18 C395.78 317.25, 404.2 320.31, 415.56 324.44 M387.36 314.18 C395.54 317.16, 403.71 320.13, 415.56 324.44" stroke="#000000" stroke-width="4" fill="none"></path></g></g><g stroke-linecap="round"><g transform="translate(1021.3890584309922 988.2221628824875) rotate(0 326.66666666666686 82.22223917643231)"><path d="M0 0 C0 31.24, 0 62.48, 0 88.89 M0 0 C0 35.32, 0 70.64, 0 88.89 M0 88.89 C181.96 88.89, 363.93 88.89, 653.33 88.89 M0 88.89 C167.77 88.89, 335.54 88.89, 653.33 88.89 M653.33 88.89 C653.33 114.23, 653.33 139.57, 653.33 164.44 M653.33 88.89 C653.33 118.25, 653.33 147.62, 653.33 164.44" stroke="#000000" stroke-width="4" fill="none"></path></g><g transform="translate(1021.3890584309922 988.2221628824875) rotate(0 326.66666666666686 82.22223917643231)"><path d="M643.07 136.25 C646.68 146.16, 650.28 156.07, 653.33 164.44 M643.07 136.25 C647.15 147.46, 651.23 158.66, 653.33 164.44" stroke="#000000" stroke-width="4" fill="none"></path></g><g transform="translate(1021.3890584309922 988.2221628824875) rotate(0 326.66666666666686 82.22223917643231)"><path d="M663.59 136.25 C659.99 146.16, 656.38 156.07, 653.33 164.44 M663.59 136.25 C659.52 147.46, 655.44 158.66, 653.33 164.44" stroke="#000000" stroke-width="4" fill="none"></path></g></g></svg>