<svg version="1.1" xmlns="http://www.w3.org/2000/svg" viewBox="0 0 1555.4541531640803 82" width="4666.36245949224" height="246" filter="invert(93%) hue-rotate(180deg)">
  <!-- svg-source:excalidraw -->
  
  <defs>
    <style>
      @font-face {
        font-family: "Virgil";
        src: url("https://excalidraw.com/Virgil.woff2");
      }
      @font-face {
        font-family: "Cascadia";
        src: url("https://excalidraw.com/Cascadia.woff2");
      }
    </style>
  </defs>
  <rect x="0" y="0" width="1555.4541531640803" height="82" fill="#ffffff"></rect><g stroke-linecap="round" transform="translate(1001.317237474168 10) rotate(0 121.49999999999977 31)"><path d="M0 0 C56.66 0, 113.32 0, 243 0 M0 0 C59.87 0, 119.75 0, 243 0 M243 0 C243 14.8, 243 29.59, 243 62 M243 0 C243 22.17, 243 44.34, 243 62 M243 62 C177.94 62, 112.88 62, 0 62 M243 62 C187.68 62, 132.36 62, 0 62 M0 62 C0 47.48, 0 32.96, 0 0 M0 62 C0 38.83, 0 15.66, 0 0" stroke="#000000" stroke-width="1" fill="none"></path></g><g transform="translate(1006.317237474168 19.5) rotate(0 116.49999999999977 21.5)"><text x="116.5" y="35" font-family="Cascadia, Segoe UI Emoji" font-size="36px" fill="#000000" text-anchor="middle" style="white-space: pre;" direction="ltr">SHOHIDUL</text></g><g stroke-linecap="round" transform="translate(1302.4541531640803 10) rotate(0 121.5 31)"><path d="M0 0 C85.77 0, 171.54 0, 243 0 M0 0 C79.16 0, 158.33 0, 243 0 M243 0 C243 18.96, 243 37.93, 243 62 M243 0 C243 24.14, 243 48.29, 243 62 M243 62 C173.48 62, 103.95 62, 0 62 M243 62 C191.3 62, 139.6 62, 0 62 M0 62 C0 41.01, 0 20.01, 0 0 M0 62 C0 48.85, 0 35.7, 0 0" stroke="#000000" stroke-width="1" fill="none"></path></g><g transform="translate(1307.4541531640803 19.5) rotate(0 116.5 21.5)"><text x="116.5" y="35" font-family="Cascadia, Segoe UI Emoji" font-size="36px" fill="#000000" text-anchor="middle" style="white-space: pre;" direction="ltr">SATCHO</text></g><g stroke-linecap="round" transform="translate(677.3372356829755 10) rotate(0 121.5 31)"><path d="M0 0 C74.82 0, 149.63 0, 243 0 M0 0 C53.09 0, 106.17 0, 243 0 M243 0 C243 21.73, 243 43.46, 243 62 M243 0 C243 19.81, 243 39.62, 243 62 M243 62 C164.81 62, 86.63 62, 0 62 M243 62 C158 62, 72.99 62, 0 62 M0 62 C0 43.5, 0 24.99, 0 0 M0 62 C0 45.15, 0 28.29, 0 0" stroke="#000000" stroke-width="1" fill="none"></path></g><g transform="translate(682.3372356829755 19.5) rotate(0 116.5 21.5)"><text x="116.5" y="35" font-family="Cascadia, Segoe UI Emoji" font-size="36px" fill="#000000" text-anchor="middle" style="white-space: pre;" direction="ltr">JAMAL</text></g><g stroke-linecap="round"><g transform="translate(925.6678609818332 41.85147007922737) rotate(0 35.15937559673853 -0.8514700792273686)"><path d="M0 0 C22.36 -0.54, 44.71 -1.08, 70.32 -1.7 M0 0 C17.3 -0.42, 34.61 -0.84, 70.32 -1.7" stroke="#000000" stroke-width="1" fill="none"></path></g><g transform="translate(925.6678609818332 41.85147007922737) rotate(0 35.15937559673853 -0.8514700792273686)"><path d="M42.38 9.24 C51.27 5.76, 60.15 2.28, 70.32 -1.7 M42.38 9.24 C49.26 6.55, 56.13 3.85, 70.32 -1.7" stroke="#000000" stroke-width="1" fill="none"></path></g><g transform="translate(925.6678609818332 41.85147007922737) rotate(0 35.15937559673853 -0.8514700792273686)"><path d="M41.89 -11.28 C50.93 -8.23, 59.97 -5.19, 70.32 -1.7 M41.89 -11.28 C48.88 -8.92, 55.88 -6.57, 70.32 -1.7" stroke="#000000" stroke-width="1" fill="none"></path></g></g><g stroke-linecap="round" transform="translate(316.2662091356642 10) rotate(0 121.5 31)"><path d="M0 0 C78.2 0, 156.41 0, 243 0 M0 0 C81.32 0, 162.64 0, 243 0 M243 0 C243 19.38, 243 38.76, 243 62 M243 0 C243 22.08, 243 44.17, 243 62 M243 62 C172.47 62, 101.95 62, 0 62 M243 62 C167.05 62, 91.09 62, 0 62 M0 62 C0 42.2, 0 22.4, 0 0 M0 62 C0 43.57, 0 25.13, 0 0" stroke="#000000" stroke-width="1" fill="none"></path></g><g transform="translate(321.2662091356642 19.5) rotate(0 116.5 21.5)"><text x="116.5" y="35" font-family="Cascadia, Segoe UI Emoji" font-size="36px" fill="#000000" text-anchor="middle" style="white-space: pre;" direction="ltr">RAHMAN</text></g><g stroke-linecap="round"><g transform="translate(564.596834434522 41.7077727501827) rotate(0 53.704887974797884 -0.7077727501826985)"><path d="M0 0 C32.78 -0.43, 65.56 -0.86, 107.41 -1.42 M0 0 C41.83 -0.55, 83.66 -1.1, 107.41 -1.42" stroke="#000000" stroke-width="1" fill="none"></path></g><g transform="translate(564.596834434522 41.7077727501827) rotate(0 53.704887974797884 -0.7077727501826985)"><path d="M79.36 9.22 C87.92 5.97, 96.48 2.73, 107.41 -1.42 M79.36 9.22 C90.28 5.08, 101.21 0.94, 107.41 -1.42" stroke="#000000" stroke-width="1" fill="none"></path></g><g transform="translate(564.596834434522 41.7077727501827) rotate(0 53.704887974797884 -0.7077727501826985)"><path d="M79.09 -11.3 C87.73 -8.29, 96.37 -5.27, 107.41 -1.42 M79.09 -11.3 C90.12 -7.45, 101.15 -3.6, 107.41 -1.42" stroke="#000000" stroke-width="1" fill="none"></path></g></g><g stroke-linecap="round" transform="translate(10 10) rotate(0 121.5 31)"><path d="M0 0 C78.43 0, 156.86 0, 243 0 M0 0 C61.02 0, 122.05 0, 243 0 M243 0 C243 13.54, 243 27.07, 243 62 M243 0 C243 23.11, 243 46.22, 243 62 M243 62 C156.78 62, 70.56 62, 0 62 M243 62 C150.55 62, 58.1 62, 0 62 M0 62 C0 43.74, 0 25.49, 0 0 M0 62 C0 45.39, 0 28.77, 0 0" stroke="#000000" stroke-width="1" fill="none"></path></g><g transform="translate(15 19.5) rotate(0 116.5 21.5)"><text x="116.5" y="35" font-family="Cascadia, Segoe UI Emoji" font-size="36px" fill="#000000" text-anchor="middle" style="white-space: pre;" direction="ltr">SOMEONE</text></g><g stroke-linecap="round"><g transform="translate(1249.6478627730262 40.99955389326266) rotate(0 23.73783254609816 0.0004461067373426886)"><path d="M0 0 C18.86 0, 37.72 0, 47.48 0 M0 0 C10.72 0, 21.43 0, 47.48 0" stroke="#000000" stroke-width="1" fill="none"></path></g><g transform="translate(1249.6478627730262 40.99955389326266) rotate(0 23.73783254609816 0.0004461067373426886)"><path d="M25.17 8.12 C34.03 4.89, 42.89 1.67, 47.48 0 M25.17 8.12 C30.2 6.29, 35.24 4.45, 47.48 0" stroke="#000000" stroke-width="1" fill="none"></path></g><g transform="translate(1249.6478627730262 40.99955389326266) rotate(0 23.73783254609816 0.0004461067373426886)"><path d="M25.17 -8.12 C34.03 -4.89, 42.89 -1.67, 47.48 0 M25.17 -8.12 C30.2 -6.29, 35.24 -4.45, 47.48 0" stroke="#000000" stroke-width="1" fill="none"></path></g></g><g stroke-linecap="round"><g transform="translate(258.33062529885774 40.63980025336781) rotate(0 26.302479268974366 0.36019974663219045)"><path d="M0 0 C14.27 0.2, 28.55 0.39, 52.6 0.72 M0 0 C20.99 0.29, 41.97 0.57, 52.6 0.72" stroke="#000000" stroke-width="1" fill="none"></path></g><g transform="translate(258.33062529885774 40.63980025336781) rotate(0 26.302479268974366 0.36019974663219045)"><path d="M27.77 9.38 C34.51 7.03, 41.24 4.68, 52.6 0.72 M27.77 9.38 C37.68 5.92, 47.59 2.47, 52.6 0.72" stroke="#000000" stroke-width="1" fill="none"></path></g><g transform="translate(258.33062529885774 40.63980025336781) rotate(0 26.302479268974366 0.36019974663219045)"><path d="M28.01 -8.61 C34.68 -6.08, 41.36 -3.55, 52.6 0.72 M28.01 -8.61 C37.82 -4.89, 47.64 -1.17, 52.6 0.72" stroke="#000000" stroke-width="1" fill="none"></path></g></g></svg>